<svg width="830" height="752" viewBox="0 0 830 752" fill="none" xmlns="http://www.w3.org/2000/svg">
<path fill-rule="evenodd" clip-rule="evenodd" d="M105.079 0C133.791 12.12 163.817 25.0292 186.466 34.8213C186.655 34.7391 186.853 34.6755 187.055 34.6309C196.303 32.6134 205.268 30.6102 214.091 28.6094L216.461 0H221.656L219.386 27.4121C225.95 25.911 232.4 24.4095 238.769 22.9053L240.928 0H244.829L242.76 21.9541C249.065 20.4545 255.29 18.9477 261.438 17.4346L263.127 0H267.028L265.434 16.4551C275.971 13.8416 286.318 11.1998 296.529 8.50586L297.392 0H301.294L300.54 7.43555C309.459 5.06316 318.303 2.65191 327.099 0.181641L327.117 0H351.172C344.252 2.0302 337.336 4.01729 330.402 5.9707L326.207 46.3672C338.076 45.0951 352.219 43.5062 366.835 41.8037L371.108 0H375.013L370.785 41.3398C379.415 40.3287 388.011 39.3048 396.167 38.3096L400.401 0H404.31L400.129 37.8223C406.776 37.0049 412.853 36.2383 418.458 35.5146L422.104 0H426.007L422.414 35.002C427.363 34.3529 431.886 33.7452 435.335 33.2461C436.943 33.0134 439.571 32.2375 443.047 31.7803C443.798 21.9778 444.713 11.1296 445.681 0H452.182C451.222 11.0178 450.313 21.7379 449.563 31.4648C450.075 31.4846 450.595 31.5116 451.128 31.5547C458.766 32.1719 468.617 35.3362 481.322 44.3516C489.525 50.172 497.082 53.557 504.338 55.2734L521.78 27.5615L480.641 0H487.618L523.85 24.2734L539.129 0H545.247L528.153 27.1572L552.903 43.7393L568.332 0H572.449L556.234 45.9697L559.361 48.0645C564.796 46.6216 570.408 45.2895 576.275 44.3428L589.188 7.55469C586.823 5.67802 584.483 3.57223 582.227 1.54688C581.643 1.02324 581.069 0.505895 580.508 0H588.313C592.599 3.67753 597.028 7.03379 599.601 7.8584C607.1 10.262 613.038 10.742 619.267 11.4805C619.485 11.5064 619.708 11.5358 619.927 11.5625C619.041 10.9797 618.186 10.4012 617.366 9.83301C613.361 7.0564 609.958 4.53419 604.514 2.11914C602.572 1.25769 600.152 0.625066 597.387 0H611.791C612.805 0.577343 613.758 1.15736 614.67 1.74023C614.812 1.42147 614.948 1.12515 615.094 0.78418C615.203 0.528296 615.312 0.265982 615.421 0H619.614C619.304 0.795072 618.982 1.57256 618.665 2.3125C618.418 2.88964 618.18 3.41997 617.948 3.93164C618.743 4.48206 619.531 5.0335 620.315 5.57715C623.749 7.95735 627.279 10.2872 632.703 12.6523C633.207 11.4789 633.874 9.88944 634.602 8.03418C635.677 5.2934 636.774 2.09943 637.282 0H641.267C640.773 2.76334 639.462 6.28075 638.218 9.45215C637.411 11.5096 636.717 13.1522 636.196 14.3584L645.197 17.4678C648.667 12.3798 652.85 6.36323 658.693 0H667.58C666.287 1.33686 664.917 2.78812 663.465 4.36914C658.526 9.74627 654.966 14.9862 651.793 19.7471L658.231 21.9707C664.591 14.4092 671.565 7.37881 677.866 0H686.366C679.511 8.66909 671.733 16.3598 664.837 24.252L689.869 32.9004L691.349 0H695.237L693.697 34.2227L721.878 43.958C722.421 43.4517 723.021 43.0138 723.65 42.6543C725.382 41.6656 727.367 41.1229 729.54 40.8525C731.213 40.6444 733.009 40.6046 734.89 40.7266L730.116 0H752.312C756.106 1.60122 759.926 3.21582 763.755 4.83984L765.602 0H769.759L767.333 6.35938C778.28 11.0082 789.059 15.6155 799.48 20.085L805.362 0H809.409L803.076 21.624C810.9 24.9824 818.128 28.0974 825.105 31.1084L828.64 16.8027V39.6807C828.395 39.5749 828.148 39.4679 827.899 39.3604L825.213 52.54L828.64 53.8408V57.9941L824.428 56.3955L820.052 77.8721L828.64 80.8389V87.6875L818.748 84.2705L811.084 121.882L828.64 127.483V131.56L756.303 108.479L763.508 154.693C788.826 157.118 815.167 160.9 828.205 162.862C828.36 162.886 828.503 162.911 828.64 162.938V169.702C827.68 169.391 826.891 169.21 827.243 169.263C817.588 167.81 800.469 165.362 782.015 163.21L779.406 251.711C794.879 249.129 810.341 246.467 825.783 243.673C825.913 243.649 826.045 243.633 826.177 243.625C826.37 243.55 826.571 243.494 826.775 243.457L826.801 243.452C827.492 241.406 828.105 239.384 828.64 237.358V253.223C824.467 264.766 819.838 274.74 814.974 283.831L819.077 286.619L828.64 281.349V285.781L822.679 289.067L828.64 293.117V299.843L791.761 325.142C797.161 327.629 801.06 328.846 805.44 329.521C816.61 331.166 822.308 329.518 828.64 331.006V339.594C825.864 342.804 824.198 344.629 819.445 345.754L809.827 349.359C810.377 351.816 810.66 353.929 810.6 355.943C810.444 361.131 807.838 365.079 802.661 371.501L724.492 468.479C727.929 471.18 731.416 473.921 735.22 476.921C739.732 475.873 744.131 475.057 748.361 474.567C759.959 473.225 769.977 472.448 778.904 472.279H778.906C797.394 471.93 811.202 474.193 824.675 479.442L824.716 475.869L814.188 470.542C813.871 470.382 813.604 470.138 813.416 469.837C811.639 466.986 810.175 464.923 809.201 462.475C808.236 460.05 807.882 457.337 808.226 453.667L808.225 453.718L808.233 453.562C808.23 453.598 808.229 453.631 808.226 453.667L809.317 383.953C809.324 383.562 809.448 383.182 809.674 382.863L825.825 360.008C826.17 359.519 826.722 359.217 827.319 359.188V359.186C827.819 359.162 828.282 359.331 828.64 359.625V472.566L828.629 473.497L828.64 473.502V477.854L828.578 477.824L828.54 481.033C828.573 481.048 828.606 481.062 828.64 481.076V488.136C807.488 478.202 788.261 476.465 749.107 480.997C746.768 481.268 744.336 481.665 741.845 482.146L807.534 536.18L827.34 546.631C831.236 548.62 828.159 554.45 824.318 552.354L804.224 541.751C804.03 541.649 803.846 541.527 803.677 541.388L733.831 483.938C727.432 485.554 720.698 487.647 713.852 489.921C720.375 517.025 730.638 548.873 721.843 575.113C714.89 595.856 705.496 612.302 696.469 626.067C694.133 629.813 688.553 626.154 691.057 622.519C699.917 609.007 708.983 593.112 715.705 573.057C723.432 550.003 714.265 519.3 707.692 491.998C703.773 493.343 699.838 494.717 695.917 496.091C694.981 496.419 694.052 496.741 693.119 497.067C693.347 497.717 693.362 498.423 693.161 499.082C689.965 510.022 687.852 520.17 680.163 529.526C672.474 538.882 659.556 546.987 635.518 554.779C611.566 562.544 597.345 566.674 590.21 570.178C586.643 571.929 585.089 573.391 584.465 574.651C583.841 575.911 583.766 577.578 584.504 580.655C585.571 584.888 579.179 586.421 578.21 582.164C577.319 578.448 577.099 574.94 578.665 571.778C580.231 568.616 583.204 566.407 587.356 564.368C595.662 560.29 609.654 556.36 633.521 548.623C656.954 541.027 668.568 533.44 675.162 525.417C681.314 517.932 683.422 509.586 686.332 499.413C671.072 504.636 656.448 509.086 644.142 509.579C590.984 511.709 541.478 514.304 492.932 516.235C492.14 517.578 492.034 517.565 491.05 519.307C485.608 528.936 477.273 544.256 470.249 558.037C466.737 564.928 463.55 571.44 461.229 576.631C460.068 579.226 459.123 581.494 458.471 583.274C457.819 585.054 457.491 586.468 457.472 586.704C455.154 614.937 451.297 655.025 449.179 683.673C447.511 706.226 447.014 728.779 447.327 748.227C447.478 752.619 440.846 752.726 440.855 748.331C440.539 728.692 441.041 705.971 442.725 683.195C444.853 654.414 448.71 614.323 451.021 586.176C451.153 584.566 451.659 583.052 452.394 581.048C453.128 579.043 454.121 576.669 455.32 573.988C457.719 568.625 460.94 562.047 464.481 555.098C471.476 541.374 479.689 526.277 485.186 516.536C482.153 516.652 479.116 516.77 476.09 516.88C475.286 518.359 474.543 519.742 473.525 521.708C468.66 531.104 463.272 542.001 457.355 552.329C450.155 564.898 442.138 576.904 426.444 586.27C410.763 595.627 403.258 595.639 383.995 593.99L227.179 580.567L219.051 678.706C219.043 678.802 219.029 678.898 219.01 678.993L215.424 697.171C214.755 700.558 209.674 699.554 210.343 696.167L213.901 678.134L222.021 580.125L218.398 579.815C218.17 579.813 207.099 579.707 200.886 578.292C182.759 574.162 175.075 572.07 148.202 558.316C146.045 557.213 140.903 557.494 135.576 558.89C130.248 560.285 124.753 562.485 121.201 563.907C102.402 571.437 72.3584 583.979 72.3584 583.979C69.154 585.355 67.1325 580.512 70.3643 579.201C70.4701 579.157 100.436 566.646 119.277 559.101C122.823 557.681 128.496 555.393 134.264 553.882C140.031 552.371 145.912 551.328 150.562 553.707C177.275 567.379 183.959 569.125 202.036 573.243C206.896 574.35 218.502 574.64 218.61 574.643C218.669 574.644 218.729 574.647 218.788 574.653L222.454 574.967L228.097 509.504C216.85 506.447 206.07 502.33 196.808 496.755C195.655 496.061 194.813 495.531 194.105 495.082H194.104C193.397 494.634 192.825 494.264 192.215 493.89C191.91 493.703 191.594 493.514 191.249 493.313C190.903 493.113 190.526 492.899 190.096 492.664H190.094C189.232 492.193 188.158 491.631 186.697 490.893C186.652 490.869 186.607 490.845 186.563 490.819C185.895 490.452 185.377 489.861 185.102 489.149C182.368 489.536 181.008 485.948 183.312 484.426C183.312 484.426 185.42 482.989 188.022 481.208L181.333 477.824L181.266 483.608C181.256 486.218 177.331 486.173 177.382 483.563L177.472 475.869L166.942 470.543C166.626 470.383 166.359 470.138 166.171 469.837C164.394 466.986 162.93 464.923 161.956 462.475C160.991 460.05 160.636 457.337 160.98 453.667L160.979 453.718L160.988 453.562C160.985 453.598 160.984 453.631 160.98 453.667L162.073 383.953C162.08 383.562 162.204 383.182 162.43 382.863L178.58 360.008C178.925 359.519 179.477 359.217 180.074 359.188V359.186C181.167 359.134 182.088 359.997 182.107 361.091C182.107 361.091 182.291 371.532 182.302 376.798C182.345 398.042 181.773 440.394 181.771 440.548V440.555L181.745 442.748L192.372 442.797L193.185 345.138L180.635 337.115C170.054 336.832 163.342 336.866 157.208 335.92C150.871 334.942 145.208 332.867 136.8 328.59C133.744 327.092 134.775 322.496 138.178 322.447C138.72 322.439 139.256 322.568 139.735 322.82C139.999 322.954 140.232 323.065 140.488 323.194L179.434 296.48L164.136 286.085C162.518 285.019 163.288 282.5 165.226 282.521C165.617 282.526 165.999 282.649 166.319 282.873L171.832 286.619L200.658 270.732L181.599 252.693C179.346 258.218 176.615 264.051 173.392 270.621C171.901 273.807 167.136 271.469 168.744 268.341C172.362 260.966 175.309 254.654 177.627 248.74C176.009 246.835 177.069 243.892 179.53 243.457L179.556 243.452C182.288 235.365 183.791 227.67 184.132 218.518L185.891 171.305C185.489 171.157 184.966 170.958 184.599 170.825C183.207 170.32 182.064 169.919 181.232 169.645C180.401 169.37 179.668 169.213 179.998 169.263C159.596 166.193 105.951 158.658 76.542 158.934C51.2636 159.17 26.0077 165.798 0 168.558V162.041C25.1243 159.276 50.365 152.706 76.4814 152.462C107.052 152.176 160.46 159.777 180.961 162.862C181.861 162.998 182.33 163.19 183.263 163.498C184.021 163.749 185.058 164.118 186.145 164.508L187.368 131.65C187.375 131.46 187.404 131.271 187.452 131.087L197.439 93.2305L109.024 62.6855L111.138 56.5684L199.096 86.9541L204.428 66.7422L150.819 46.3838L152.198 42.7529L205.424 62.9668L208.471 51.417C187.692 42.376 134.651 19.3736 88.4043 0H105.079ZM470.107 517.087C452.885 517.691 435.724 518.199 418.521 518.535L419.16 546.915C419.355 551.321 412.693 551.471 412.69 547.061L412.05 518.649C403.738 518.792 395.41 518.898 387.054 518.957L382.589 571.053C382.377 573.644 378.486 573.309 378.719 570.72L383.154 518.979C381.205 518.989 379.254 518.999 377.301 519.005L346.604 559.238C345.046 561.38 341.864 558.952 343.518 556.883L372.412 519.012C362.825 519.018 353.186 518.959 343.482 518.832L339.94 556.319C339.747 558.956 335.77 558.58 336.074 555.953L339.588 518.781C332.43 518.673 325.235 518.529 317.992 518.339H317.985C317.49 518.325 316.161 518.338 314.485 518.354L332.064 555.303C333.25 557.666 329.643 559.381 328.558 556.97L318.826 536.519L311.916 535.882L309.158 565.614C308.942 568.22 305.023 567.856 305.291 565.255L308.049 535.525L278.3 532.783L275.167 563.069C274.91 565.656 271.027 565.255 271.305 562.67L274.433 532.427L255.865 530.715L253.044 561.125C252.828 563.731 248.91 563.368 249.177 560.767L251.998 530.358L231.659 528.483L227.614 575.409L384.438 588.832C403.638 590.475 408.665 590.849 423.791 581.823C438.493 573.05 445.774 562.129 452.862 549.756C458.672 539.616 464.029 528.787 468.928 519.326C469.389 518.435 469.735 517.791 470.107 517.087ZM278.699 528.92L316.886 532.44L310.195 518.379C307.828 518.388 305.17 518.391 302.041 518.352C295.845 518.274 288.253 518.049 279.882 517.493L278.699 528.92ZM231.993 524.614L274.832 528.563L276.007 517.213C274.161 517.071 272.293 516.917 270.389 516.739C258.538 515.633 245.674 513.82 233.184 510.802L231.993 524.614ZM411.249 501.658C394.616 502.117 378.033 502.428 361.676 502.491L361.65 512.519C378.531 512.591 395.248 512.464 411.904 512.178L411.729 504.414C411.727 504.359 411.727 504.303 411.729 504.247C411.579 503.374 411.42 502.511 411.249 501.658ZM327.148 512.08C337.433 512.301 347.632 512.438 357.767 512.501L357.792 502.499C347.477 502.515 337.254 502.433 327.172 502.232L327.148 512.08ZM552.54 495.756C551.497 495.77 550.44 495.801 549.372 495.849C507.869 497.717 463.328 500.091 418.976 501.439C418.676 502.725 418.421 504.108 418.23 505.642L418.374 512.061C478.879 510.877 538.846 507.717 603.544 504.831C600.571 504.1 597.639 503.345 594.754 502.586C581.123 499.001 568.19 495.54 552.54 495.756ZM319.536 502.058C319.474 502.059 317.327 502.281 314.6 502.74C313.916 502.855 313.019 503.013 312.228 503.15C312.226 504.911 312.22 511.553 312.22 511.893C315.031 511.869 317.057 511.839 318.158 511.869H318.165C319.87 511.914 321.565 511.949 323.265 511.989L323.289 502.145C322.04 502.116 320.787 502.09 319.543 502.058H319.536ZM303.922 504.569C295.322 505.999 284.056 507.677 271.709 508.603C268.197 508.866 264.589 509.063 260.935 509.186C264.339 509.617 267.706 509.988 270.99 510.295C282.883 511.405 293.774 511.776 302.121 511.88C303.442 511.896 304.569 511.896 305.747 511.9C305.748 511.608 305.753 505.65 305.754 504.258C305.122 504.365 304.587 504.459 303.922 504.569ZM656.077 462.314C644.873 475.05 633.54 487.912 620.604 501.743C627.773 502.853 635.394 503.452 643.878 503.112H643.881C649.355 502.893 655.68 501.709 662.528 499.942L656.077 462.314ZM248.942 444.896C223.13 463.376 199.643 479.534 190.683 485.662C195.603 488.191 196.031 488.732 200.146 491.209C219.101 502.617 247.108 503.955 271.224 502.147C283.281 501.244 294.352 499.598 302.858 498.185C304.015 497.992 304.701 497.869 305.759 497.688C305.759 497.343 305.759 496.845 305.76 496.479L288.404 493.228C288.236 493.199 288.073 493.148 287.918 493.076L261.402 486.817C255.195 485.352 251.766 482.715 250.184 479.571C248.601 476.428 248.867 473.194 248.873 470.759L248.942 444.896ZM595.617 421.002C594.519 421.342 593.413 421.695 592.297 422.062L611.453 500.032C611.972 500.145 612.491 500.259 613.014 500.367C613.499 499.852 613.992 499.333 614.473 498.821L595.617 421.002ZM579.513 469.11L592.267 495.246C593.646 495.606 595.026 495.966 596.4 496.327C599.99 497.271 603.577 498.208 607.22 499.073L597.245 458.475L579.513 469.11ZM663.292 481.419L666.294 498.932C673.203 496.997 680.576 494.556 688.115 491.951L688.809 471.03L663.292 481.419ZM327.188 495.759C337.264 495.96 347.487 496.041 357.808 496.025L357.858 475.86L327.237 475.451L327.188 495.759ZM361.691 496.018C377.562 495.956 393.659 495.66 409.817 495.222C408.276 488.721 406.772 482.648 407.155 476.521L361.741 475.913L361.691 496.018ZM312.257 434.373C312.273 454.61 312.251 477.147 312.234 493.741L322.427 495.651C322.719 495.658 323.012 495.664 323.304 495.671L323.455 434.592L312.257 434.373ZM617.646 495.422C620.107 492.776 622.518 490.161 624.88 487.574C624.992 482.644 625.09 477.483 625.187 472.309L612.024 472.222L617.646 495.422ZM417.651 460.356C415.237 464.798 413.244 469.285 412.468 475.267C411.732 480.931 413.56 487.404 415.288 495.067L415.43 495.063C416.823 490.884 418.241 487.513 418.877 482.616C419.577 477.221 418.627 470.811 417.986 464.411C417.851 463.061 417.737 461.707 417.651 460.356ZM446.828 456.212C437.238 465.016 437.358 465.511 423.684 468.903C424.2 473.631 424.63 478.528 424.013 483.282C423.397 488.022 422.14 491.52 420.959 494.902C429.503 494.636 438.053 494.331 446.59 494.001C447.298 473.487 443.22 476.269 455.462 464.545L446.828 456.212ZM569.548 430.809C569.2 431.058 546.135 447.596 525.279 457.84C517.282 461.768 510.533 467.196 502.74 467.846C502.69 467.85 502.638 467.852 502.588 467.853C487.803 467.927 480.589 468.761 474.699 467.214L472.248 474.823C484.947 476.169 490.539 476.978 501.869 476.919C503.765 476.909 507.126 475.921 510.89 474.273C514.653 472.625 518.888 470.366 522.969 467.998C523.404 467.746 524.268 467.617 524.878 467.889C525.488 468.161 525.741 468.556 525.896 468.826C526.205 469.365 526.244 469.708 526.314 470.106C526.456 470.904 526.514 471.844 526.552 472.991C526.629 475.287 526.594 478.324 526.575 481.342C526.557 484.36 526.556 487.365 526.682 489.439C526.705 489.831 526.738 490.142 526.771 490.42C534.269 490.067 541.751 489.714 549.081 489.384C563.5 488.735 575.67 491.089 587.334 493.992L575.241 469.213C574.8 468.307 575.124 467.213 575.988 466.695L585.499 460.99L569.621 430.778C569.597 430.789 569.572 430.798 569.548 430.809ZM458.263 467.248C454.018 471.143 450.184 474.249 450.234 478.1C450.302 483.259 449.859 486.993 450.474 493.853C456.304 493.622 462.107 493.373 467.912 493.123L467.937 476.585L458.263 467.248ZM522.633 472.622C519.19 474.557 515.704 476.404 512.448 477.83C508.472 479.571 504.923 480.787 501.891 480.803C490.336 480.863 484.57 480.034 471.816 478.684L471.796 492.949C489.045 492.195 506.148 491.39 522.883 490.6C522.857 490.297 522.826 490.01 522.806 489.674C522.667 487.379 522.673 484.35 522.691 481.319C522.71 478.289 522.742 475.259 522.67 473.121C522.662 472.893 522.643 472.829 522.633 472.622ZM291.231 489.806L305.763 492.528C305.775 478.632 305.784 465.199 305.782 446.46L292.31 445.562L291.231 489.806ZM692.045 490.584C692.623 490.382 693.196 490.185 693.775 489.982C704.969 486.062 716.384 481.996 727.33 478.949C713.297 467.898 702.579 459.527 693.315 452.292L692.045 490.584ZM252.757 470.769C252.75 473.381 252.656 475.843 253.653 477.825C254.651 479.807 256.746 481.728 262.293 483.037L287.366 488.955L288.431 445.304L252.831 442.93L252.757 470.769ZM645.148 453.722L631.963 454.478C631.829 463.197 631.674 471.829 631.501 480.254C636.222 475.005 640.82 469.831 645.335 464.711L645.354 453.701C645.286 453.711 645.217 453.718 645.148 453.722ZM181.384 473.497L191.669 478.7C191.782 478.623 191.96 478.5 192.075 478.421L192.339 446.681L181.7 446.631L181.384 473.497ZM660.112 462.87L662.621 477.499L688.95 466.78L689.477 450.917L660.112 462.87ZM195.979 475.729C199.291 473.449 202.379 471.322 206.729 468.303L205.868 468.292L206.127 446.746L196.222 446.699L195.979 475.729ZM384.908 472.339L407.61 472.644C407.62 472.644 407.629 472.644 407.639 472.645C409.632 461.295 415.444 454.696 419.682 445.828C419.815 445.539 420 445.277 420.229 445.055C421.514 442.224 422.878 439.394 424.274 436.555L385.028 435.79L384.908 472.339ZM361.75 472.029L381.024 472.287L381.145 435.715L361.842 435.339L361.75 472.029ZM431.729 436.241L469.006 472.222L471.053 465.867C464.685 462.789 459.399 456.253 445.281 441.994C444.706 441.413 441.459 438.352 438.278 435.363C436.801 433.975 435.366 432.63 434.125 431.46C433.32 433.069 432.521 434.664 431.729 436.241ZM327.248 471.566L357.867 471.978L357.958 435.263L327.339 434.666L327.248 471.566ZM164.861 453.782C164.861 453.835 164.858 453.888 164.854 453.94C164.531 457.269 164.821 459.17 165.565 461.042C166.265 462.8 167.521 464.684 169.179 467.325L177.523 471.548L177.815 446.613L164.976 446.553L164.861 453.782ZM812.106 453.782C812.106 453.835 812.103 453.888 812.098 453.94C811.775 457.269 812.066 459.17 812.811 461.042C813.51 462.8 814.766 464.684 816.424 467.325L824.769 471.548L825.061 446.613L812.22 446.553L812.106 453.782ZM608.056 455.85L611.12 468.491C611.37 468.385 611.639 468.332 611.91 468.337L625.264 468.427C625.344 463.928 625.413 459.384 625.482 454.85L608.056 455.85ZM209.776 466.184C214.179 463.121 218.839 459.87 223.882 456.326L219.911 446.81L210.011 446.764L209.776 466.184ZM696.316 446.415C703.556 452.073 711.294 458.113 721.44 466.077L751.144 429.227L736.375 411.88L696.316 446.415ZM429.908 439.883C427.428 444.883 425.109 449.756 423.194 454.566C423.092 454.837 422.953 455.093 422.782 455.326C422.657 457.962 422.834 460.852 423.139 463.896C423.174 464.245 423.217 464.611 423.255 464.964C433.623 461.675 436.473 461.705 444.029 453.511L429.908 439.883ZM626.275 383.132C610.706 383.126 591.133 389.118 569.548 398.446C569.2 398.696 546.135 415.234 525.279 425.478C517.282 429.405 510.533 434.834 502.74 435.483C502.69 435.488 502.638 435.49 502.588 435.49C493.436 435.536 487.253 435.843 482.44 435.736C481.212 435.709 480.065 435.652 478.98 435.554L475.701 463.444C480.686 464.695 487.611 464.049 502.454 463.97C508.521 463.447 515.152 458.487 523.568 454.354C544.081 444.279 567.442 427.546 567.496 427.508C567.608 427.427 567.73 427.359 567.856 427.305C575.166 424.142 582.259 421.344 589.088 419.012C589.263 418.923 589.45 418.86 589.644 418.827C591.72 418.124 593.775 417.462 595.8 416.851C596.111 416.612 596.488 416.473 596.879 416.452C596.961 416.449 597.044 416.45 597.126 416.457C607.55 413.402 617.259 411.633 626.03 411.61C626.152 399.481 626.227 389.976 626.275 383.132ZM444.407 408.769C441.863 415.45 438.913 421.752 435.928 427.814C437.324 429.135 439.045 430.755 440.938 432.533C444.119 435.523 447.187 438.399 448.041 439.261C461.513 452.868 467.032 459.208 471.965 461.967L475.141 434.945C473.562 434.574 472.084 434.054 470.637 433.31C464.31 430.055 458.768 423.258 444.407 408.769ZM649.226 460.293C656.592 451.923 663.922 443.588 671.528 435.126C666.165 430.814 661.799 427.191 658.25 423.998C654.213 420.367 651.453 418.014 649.306 416.102L649.226 460.293ZM588.605 423.313C583.621 425.057 578.481 427.047 573.207 429.255L588.835 458.99L596.274 454.527L588.605 423.313ZM676.595 439.177C670.742 445.685 665.04 452.133 659.376 458.568L659.441 458.95L687.315 447.604C683.511 444.626 679.679 441.621 676.595 439.177ZM224.779 405.974L223.46 445.228L227.134 454.032C234.123 449.108 241.473 443.897 248.96 438.521L249.048 405.952L224.779 405.974ZM625.988 415.495C618.053 415.529 609.079 417.12 599.344 419.895L607.127 452.012L625.546 450.954C625.73 438.54 625.874 426.452 625.988 415.495ZM632.455 416.104C632.343 426.795 632.203 438.514 632.025 450.583L644.927 449.844C644.971 449.84 645.017 449.837 645.062 449.837C645.162 449.837 645.262 449.847 645.361 449.862L645.423 415.383L632.455 416.104ZM734.065 380.326C712.784 400.23 696.094 417.669 680.943 434.352C684.39 437.08 688.824 440.557 693.196 443.977L747.583 397.091L734.065 380.326ZM217.608 397.165C217.006 400.839 214.153 403.782 210.521 404.506L210.058 442.881L219.651 442.925L221.189 397.182L217.608 397.165ZM196.254 442.816L206.174 442.862L206.637 404.407C203.171 403.545 200.492 400.654 199.941 397.08L196.636 397.065L196.254 442.816ZM165.036 442.67L177.86 442.73L177.888 440.508V440.501C177.89 440.348 178.196 417.491 178.343 396.98L165.753 396.922L165.036 442.67ZM812.281 442.67L825.105 442.73L825.132 440.508V440.501C825.134 440.349 825.44 417.491 825.587 396.98L812.998 396.922L812.281 442.67ZM305.648 402.52C303.944 403.89 302.183 405.291 300.354 406.729C296.205 409.99 291.73 413.423 287.079 416.94L292.154 441.659L305.782 442.568C305.779 429.682 305.768 418.813 305.734 416.312C305.664 411.152 305.645 406.702 305.648 402.52ZM283.647 419.531C275.052 425.985 265.88 432.691 256.726 439.298L288.135 441.392L283.647 419.531ZM249.738 363.005C249.673 363.01 249.607 363.012 249.541 363.01L249.243 382.702C249.227 383.749 248.384 384.595 247.337 384.614L225.483 385.012L224.91 402.09L250.993 402.067C252.068 402.067 252.939 402.939 252.937 404.014L252.851 435.709C268.541 424.396 284.335 412.733 297.153 402.659C300.19 400.273 303.023 397.997 305.683 395.817C305.841 381.553 306.478 371.907 307.426 359.184L249.738 363.005ZM401.384 413.896C397.239 413.883 391.845 413.97 385.1 414.021L385.041 431.905L426.179 432.706C427.87 429.31 429.587 425.887 431.266 422.409C422.258 417.525 417.892 415.422 412.338 414.526C409.4 414.052 406.023 413.909 401.384 413.896ZM478.663 388.13L479.479 431.705C480.406 431.782 481.411 431.83 482.526 431.854C486.914 431.952 492.95 431.681 501.592 431.618L501.073 388.126L478.663 388.13ZM342.692 414.842L342.653 431.079L381.157 431.83L381.216 414.074L342.692 414.842ZM450.34 388.137C449.253 393.936 447.702 399.446 445.871 404.729C461.294 420.178 467.145 427.147 472.413 429.856C473.439 430.384 474.466 430.78 475.582 431.076L474.778 388.132L450.34 388.137ZM505.469 431.013C510.729 429.482 516.522 425.452 523.568 421.991C523.804 421.875 524.045 421.749 524.281 421.632C524.28 421.503 524.135 409.892 524.106 407.664L504.991 391.006L505.469 431.013ZM312.115 405.751C312.127 408.982 312.153 412.431 312.204 416.224C312.228 418.003 312.242 423.573 312.251 430.488L338.77 431.004L338.81 414.189L312.115 405.751ZM704.499 341.646C681.087 353.438 657.696 364.422 634.329 375.705C643.135 393.954 645.97 401.37 648.107 405.063C649.255 407.047 650.194 408.137 652.28 410.07C654.367 412.004 657.535 414.647 662.579 419.184C666.051 422.307 670.423 425.929 675.871 430.302C691.264 413.344 708.259 395.581 729.991 375.275L723.133 366.77C723.117 366.749 723.1 366.727 723.085 366.706L704.499 341.646ZM739.316 409.344L753.624 426.148L762.441 415.21C762.165 415.079 761.923 414.884 761.736 414.642L750.021 400.114L739.316 409.344ZM528.139 419.658C531.628 417.824 535.139 415.855 538.557 413.853C538.555 413.771 538.558 413.688 538.563 413.606L543.062 350.62L527.274 350.079C527.7 384.9 528.112 417.554 528.139 419.658ZM337.765 362.928C335.527 369.037 332.514 375.211 328.406 381.377C326.505 384.231 323.032 387.679 318.226 391.963C316.393 393.597 314.317 395.366 312.131 397.196C312.119 398.597 312.123 400.174 312.12 401.678L341.544 410.979L382.809 410.158C382.818 410.158 382.827 410.158 382.836 410.158C398.749 410.07 406.424 409.639 412.957 410.692C419.091 411.682 423.954 414.03 432.926 418.891C440.253 403.226 446.364 386.315 445.482 365.829L337.765 362.928ZM752.965 397.578L764.759 412.204C764.776 412.226 764.794 412.248 764.811 412.271L799.637 369.064C804.731 362.745 806.598 359.811 806.718 355.827C806.754 354.623 806.588 353.231 806.278 351.615L752.965 397.578ZM632.714 387.356C632.664 394.046 632.599 402.178 632.498 412.213L644.738 411.532C643.921 410.535 643.194 409.493 642.506 408.305C640.279 404.456 638.228 399.182 632.714 387.356ZM543.969 410.613C552.937 405.136 560.502 400.013 564.471 397.263C562.879 394.052 561.921 391.808 561.229 390.443C560.489 388.984 560.254 388.735 559.709 388.502C559.164 388.269 557.79 388.106 555.238 387.961C553.028 387.835 549.893 387.648 545.643 387.173L543.969 410.613ZM504.93 385.802L524.042 402.457C523.902 391.448 523.712 376.224 523.389 349.856L504.48 348.252L504.93 385.802ZM208.78 390.653C205.957 390.654 203.71 392.902 203.71 395.726C203.71 398.549 205.957 400.796 208.78 400.796C211.604 400.796 213.852 398.549 213.853 395.726C213.852 392.902 211.604 390.653 208.78 390.653ZM545.919 383.297C550.142 383.773 553.214 383.956 555.459 384.084C558.02 384.23 559.653 384.256 561.233 384.931C562.814 385.605 563.827 386.982 564.692 388.688C565.454 390.19 566.315 392.197 567.698 395.021C567.75 394.992 567.803 394.966 567.856 394.942C572.087 393.112 576.245 391.403 580.322 389.835C580.265 389.705 580.222 389.569 580.194 389.43L572.112 351.615L548.24 350.797L545.919 383.297ZM786.362 329.739C779.708 339.025 773.188 345.421 762.565 354.653C753.287 362.718 744.789 370.36 736.91 377.668L750.525 394.554L805.275 347.353C804.439 344.238 803.261 340.378 801.784 335.427C797.047 334.427 792.396 332.687 786.362 329.739ZM210.744 386.996C213.934 387.719 216.49 390.157 217.386 393.28L221.319 393.298L222.328 363.293C221.787 363.256 221.264 363.083 220.808 362.791L211.098 356.586L210.744 386.996ZM196.669 393.182L200.198 393.198C201.118 390.1 203.677 387.689 206.859 386.984L207.243 354.122L197.048 347.606L196.669 393.182ZM165.946 384.618L165.814 393.039L178.368 393.097C178.405 387.124 178.427 381.423 178.418 376.809C178.412 373.604 178.352 370.657 178.298 367.139L165.946 384.618ZM813.191 384.618L813.06 393.039L825.612 393.097C825.649 387.124 825.673 381.423 825.663 376.809C825.657 373.604 825.597 370.657 825.543 367.139L813.191 384.618ZM313.687 362.279C312.971 372.016 312.456 380.039 312.233 390.314C313.102 389.564 313.987 388.804 314.779 388.098C319.457 383.928 322.804 380.447 324.097 378.506C327.595 373.254 330.246 368.003 332.283 362.78L313.687 362.279ZM583.96 388.469C584.941 388.108 585.913 387.763 586.884 387.42L579.339 351.863L576.113 351.753L583.96 388.469ZM590.584 386.15C594.135 384.967 597.614 383.912 601.009 383.009C600.925 382.796 600.879 382.57 600.874 382.342L600.356 352.583L583.338 352.001L590.584 386.15ZM451.094 343.722C451.289 350.737 451.546 357.864 451.904 364.364C452.29 371.369 451.912 377.975 450.983 384.253L474.706 384.248L473.982 345.663L451.094 343.722ZM478.59 384.248L501.026 384.243L500.593 347.923L477.873 345.994L478.59 384.248ZM604.754 382.067C612.414 380.249 619.632 379.237 626.301 379.247C626.315 377.039 626.34 373.302 626.34 373.263V373.246L626.547 353.481L604.243 352.716L604.754 382.067ZM236.776 260.597C234.914 262.429 233.369 263.524 232.219 265.319C230.731 267.642 229.486 271.573 228.997 280.539L225.615 381.125L245.389 380.767L246.848 283.891C246.851 283.689 246.886 283.489 246.95 283.298L249.683 275.227C245.324 270.366 241.031 265.486 236.776 260.597ZM754.766 314.674C739.827 323.29 724.059 332.156 708.01 339.862L726.181 364.363L732.837 372.616C740.672 365.355 749.118 357.766 758.319 349.769C762.275 346.331 765.585 343.364 768.516 340.528C767.142 337.983 761.773 328.006 754.766 314.674ZM633.105 345.434L632.824 372.119C643.371 367.027 653.913 361.988 664.45 356.926L661.716 340.157L633.105 345.434ZM418.172 361.209L445.302 361.939C445.002 355.923 444.778 349.506 444.605 343.171L417.773 340.894L418.172 361.209ZM398.527 332.144C394.737 332.837 390.904 333.476 387.013 334.056L385.208 360.32L414.284 361.104L413.883 340.562L410.076 340.24C407.851 340.543 405.861 340.376 404.259 339.595C402.494 338.734 401.331 337.319 400.53 335.985C399.681 334.571 399.069 333.23 398.527 332.144ZM340.108 355.573C339.789 356.738 339.446 357.906 339.075 359.077L381.323 360.217L381.564 356.689L340.108 355.573ZM250.727 284.254L249.599 359.123L307.729 355.272C308.35 347.573 309.139 341.96 308.455 337.84C307.732 333.482 305.784 330.216 299.225 325.74L299.033 325.61L298.862 325.453C282.219 310.205 267.073 294.479 252.659 278.541L250.727 284.254ZM314.075 357.037C314.039 357.515 314.01 357.934 313.975 358.401L333.683 358.932C334.075 357.762 334.433 356.594 334.771 355.429L314.256 354.877C314.193 355.587 314.131 356.296 314.075 357.037ZM198.212 340.668L222.566 356.233L223.268 335.371L202.799 335.17C202.72 335.169 202.641 335.164 202.563 335.153L198.212 340.668ZM662.704 322.091L668.099 355.174C679.454 349.707 690.805 344.188 702.15 338.479L686.615 317.531L662.704 322.091ZM383.082 334.618C370.742 336.31 357.733 337.398 343.446 337.734C342.92 342.304 342.194 346.973 341.091 351.715L381.831 352.811L383.082 334.618ZM314.934 337.438C315.522 341.641 315.113 345.963 314.618 351.002L335.797 351.572C336.924 346.941 337.671 342.354 338.211 337.823C330.827 337.9 323.093 337.777 314.934 337.438ZM626.802 329.183C619.648 330.182 612.996 331.016 606.449 331.816L617.329 347.079C617.533 347.353 617.681 347.666 617.764 347.998L626.602 348.301L626.802 329.183ZM604.152 347.532L611.472 347.782L603.975 337.261L604.152 347.532ZM600.604 332.533C593.943 333.351 587.167 334.208 579.787 335.268L582.23 346.779L600.267 347.397L600.066 335.905C600.038 334.965 600.689 334.139 601.61 333.946L600.604 332.533ZM572.812 336.301L574.999 346.532L578.231 346.644L575.937 335.831C574.903 335.985 573.872 336.137 572.812 336.301ZM568.97 336.908C563.233 337.826 557.057 338.89 550.257 340.162L549.046 345.644L570.997 346.396L568.97 336.908ZM806.057 336.134C807.156 339.779 808.126 342.952 808.857 345.575L817.589 342.302C821.031 341.012 823.625 340.309 825.686 337.063C817.287 336.86 811.304 336.794 806.057 336.134ZM527.21 344.895L543.783 345.463L547.025 330.782L527 327.213C527.083 334.128 527.127 338.035 527.21 344.895ZM522.827 302.498C516.542 303.836 510.26 305.212 503.983 306.621L504.419 343.051L523.322 344.654C523.136 329.331 522.995 317.02 522.827 302.498ZM500.11 307.487C492.483 309.22 484.864 311.01 477.252 312.862L477.775 340.79L500.531 342.721L500.11 307.487ZM633.291 327.7L633.147 341.477L661.091 336.322L658.889 322.817L633.291 327.7ZM473.386 313.815C465.793 315.685 458.208 317.617 450.632 319.621C450.695 325.083 450.8 331.628 450.962 338.515L473.886 340.46L473.386 313.815ZM144.517 325.142C149.916 327.628 153.815 328.846 158.195 329.521C163.772 330.382 170.408 330.349 181.711 330.668C182.297 330.684 182.869 330.861 183.363 331.177L194.924 338.565L223.568 302.271L224.36 301.146L224.68 293.387L224.64 293.43L210.396 279.949L144.517 325.142ZM440.646 322.296C432.846 324.425 425.197 326.395 417.524 328.178L417.671 335.69L444.474 337.965C444.335 331.943 444.242 326.304 444.18 321.349C443.002 321.666 441.822 321.975 440.646 322.296ZM795.748 289.126C783.204 297.585 770.663 305.39 758.126 312.717C764.612 325.059 769.469 334.105 771.385 337.66C776.475 332.408 780.527 327.213 785.265 319.807C791.239 310.467 797.247 301.519 803.009 291.852L795.748 289.126ZM690.89 316.776L705.662 336.695C712.04 333.464 718.417 330.179 724.792 326.799L723.321 311.225L690.89 316.776ZM551.166 336.046C557.282 334.915 562.911 333.947 568.157 333.106L564.156 314.382C562.998 308.964 561.574 304.115 559.248 299.447L551.166 336.046ZM413.656 329.055C410.428 329.775 407.191 330.472 403.93 331.118C404.299 331.96 404.614 332.729 404.969 333.32C405.483 334.177 405.936 334.653 406.527 334.941C407.119 335.23 408.032 335.431 409.8 335.111C410.024 335.071 410.253 335.061 410.479 335.08L413.78 335.36L413.656 329.055ZM569.878 293.086C566.959 293.636 564.039 294.188 561.121 294.75C564.628 300.733 566.524 306.883 567.953 313.57L571.999 332.497C573.064 332.333 574.092 332.18 575.129 332.024L570.947 312.316C569.529 305.632 569.165 299.692 569.878 293.086ZM205.594 331.312L223.398 331.488L224.197 307.741L205.594 331.312ZM573.624 294.679C573.109 300.409 573.481 305.547 574.746 311.51L578.979 331.46C585.73 330.488 591.953 329.69 598.042 328.938L573.624 294.679ZM301.375 310.606C301.013 311.856 300.578 312.918 300.102 313.813C299.568 314.817 298.985 315.59 298.416 316.209C300.01 317.704 301.613 319.196 303.234 320.682C307.887 323.925 310.986 327.291 312.855 330.872C322.055 331.298 330.682 331.446 338.867 331.351C339.422 324.665 339.669 318.135 340.13 311.835C340.149 311.579 340.171 311.303 340.189 311.046L301.375 310.606ZM345.208 313.519C344.826 319.137 344.578 325.08 344.079 331.259C348.72 331.143 353.224 330.946 357.606 330.673C356.672 325.489 354.696 322.005 352.141 319.194C350.148 317.003 347.757 315.231 345.208 313.519ZM358.632 320.08C358.602 320.434 358.474 320.773 358.265 321.061C359.742 323.655 360.874 326.726 361.5 330.41C371.087 329.703 380.128 328.626 388.889 327.243L387.974 235.412L366.06 231.963L358.632 320.08ZM597.253 308.96L591.87 311.358L603.885 328.216C606.476 327.899 609.089 327.576 611.707 327.25L611.367 307.696L597.253 308.96ZM554.708 296.003C551.511 296.628 548.314 297.258 545.119 297.898L540.563 325.687L547.863 326.987L554.708 296.003ZM615.245 307.349L615.584 326.761C619.226 326.297 622.958 325.804 626.844 325.258L627.044 306.292L615.245 307.349ZM392.768 326.607C399.904 325.395 405.941 323.987 413.527 322.457L411.896 239.175L391.865 236.023L392.768 326.607ZM541.049 298.72C536.265 299.689 531.482 300.673 526.703 301.679C526.785 308.777 526.864 315.72 526.954 323.26L536.74 325.005L541.049 298.72ZM741.514 289.006C741.425 289.029 741.334 289.045 741.243 289.056L725.31 290.966L728.504 324.822C736.658 320.455 744.809 315.941 752.959 311.231C749.117 303.894 745.167 296.248 741.514 289.006ZM633.531 304.933L633.333 323.738L658.265 318.983L655.344 301.077L633.531 304.933ZM417.395 321.577C424.518 319.896 431.648 318.042 438.94 316.051C440.661 315.581 442.383 315.13 444.104 314.668C444.058 309.545 444.042 305.917 444.032 305.277C443.718 284.995 443.403 264.524 443.088 244.081L415.793 239.787L417.395 321.577ZM813.108 287.26C806.669 298.872 799.879 309.116 793.205 319.441L826.679 296.48L813.108 287.26ZM659.168 300.4L662.08 318.257L685.326 313.823L683.431 296.112L659.168 300.4ZM352.297 229.799C349.621 258.489 347.296 285.353 345.531 309.078C348.795 311.197 352.15 313.434 355.014 316.583C355.018 316.588 355.022 316.593 355.026 316.598L362.213 231.359L352.297 229.799ZM292.555 271.515C290.439 271.55 287.227 271.867 282.076 272.381H282.05L280.609 272.544L282.369 300.588C286.683 304.941 291.096 309.259 295.604 313.544C295.937 313.175 296.304 312.685 296.673 311.99C297.974 309.543 299.231 304.654 298.028 295.369C298.024 295.335 298.021 295.3 298.019 295.266L296.278 272.167C295.975 272.006 295.676 271.869 295.359 271.773C294.697 271.573 293.823 271.494 292.555 271.515ZM687.272 295.526L689.157 313.132L722.956 307.346L721.453 291.429L687.272 295.526ZM450.504 305.178C450.516 305.945 450.529 308.809 450.563 312.938C458.056 310.966 465.556 309.067 473.062 307.226L472.291 244.835L449.55 243.274C449.868 263.954 450.186 284.662 450.504 305.178ZM739.503 276.223C744.185 285.883 750.437 298.039 756.319 309.273C767.975 302.459 779.628 295.229 791.277 287.447L758.185 275.021L739.503 276.223ZM592.872 288.859C587.844 289.761 582.818 290.678 577.794 291.608L589.57 308.131L594.215 306.062L592.872 288.859ZM301.887 294.926C301.884 294.907 301.882 294.889 301.88 294.87L301.891 294.974L301.887 294.926C302.513 299.793 302.521 303.659 302.146 306.73L336.975 307.126L303.227 278.021C302.134 277.078 301.222 276.257 300.428 275.538L301.887 294.926ZM476.935 306.28C481.169 305.254 485.406 304.249 489.644 303.26L488.936 245.977L476.179 245.102L476.935 306.28ZM317.632 285.315L340.637 305.155C342.378 282.151 344.617 256.378 347.179 228.927C339.043 227.326 332.289 226.943 324.659 225.903L317.632 285.315ZM610.984 285.664C606.226 286.489 601.468 287.321 596.713 288.167L598.026 304.992L611.299 303.804L610.984 285.664ZM627.289 282.877C623.144 283.577 619 284.284 614.856 284.997L615.177 303.456L627.084 302.391L627.289 282.877ZM493.516 302.365C497.317 301.488 501.121 300.623 504.926 299.774L504.288 247.029L492.822 246.243L493.516 302.365ZM651.716 278.828C645.735 279.806 639.753 280.786 633.775 281.785L633.573 300.98L654.72 297.244L651.716 278.828ZM508.799 298.911C513.448 297.885 518.097 296.875 522.75 295.888C522.495 273.571 522.296 254.913 522.272 248.264L508.176 247.296L508.799 298.911ZM681.072 274.08C672.562 275.44 664.053 276.811 655.548 278.196L658.544 296.567L683.017 292.243L681.072 274.08ZM258.267 275.085C264.748 282.234 271.377 289.329 278.213 296.349L276.746 272.983L258.267 275.085ZM526.338 269.127C526.414 276.535 526.517 285.529 526.626 295.077C529.103 294.557 531.581 294.038 534.059 293.528L533.111 269.118L526.338 269.127ZM175.434 289.067L182.872 294.121L207.512 277.219L203.619 273.535L175.434 289.067ZM536.955 268.007L537.915 292.742C543.229 291.66 548.546 290.603 553.863 289.563C551.909 282.043 551.45 277.104 552.182 273.288C552.358 272.369 552.61 271.529 552.918 270.747C549.996 267.728 547.011 264.652 544.055 261.597L536.955 268.007ZM684.911 273.468L686.859 291.664L708.311 289.093L706.077 270.104C699.022 271.223 691.965 272.343 684.911 273.468ZM559.998 267.264C557.905 269.438 556.56 271.076 555.996 274.019C555.435 276.948 555.747 281.43 557.681 288.815C562.007 287.978 566.335 287.151 570.664 286.338C569.343 280.072 568.37 275.601 566.896 272.718C565.452 269.895 563.7 268.372 559.998 267.264ZM709.916 269.493L712.166 288.63L739.659 285.334C738.061 282.134 736.55 279.067 735.204 276.264C733.908 273.564 733.862 270.101 733.932 267.127C733.944 266.601 733.969 266.131 733.993 265.66C725.966 266.942 717.942 268.22 709.916 269.493ZM822.629 250.812C801.981 254.515 781.313 257.988 760.641 261.358L760.327 271.678L804.999 288.45C811.349 277.477 817.355 265.45 822.629 250.812ZM213.511 277.55L224.851 288.283L225.117 280.369C225.117 280.356 225.117 280.341 225.117 280.328C225.622 271.069 226.922 266.385 228.947 263.224C230.574 260.685 232.403 259.392 234.213 257.635C233.718 257.064 233.222 256.493 232.729 255.922L213.511 277.55ZM590.932 264.011C583.113 264.895 579.501 265.052 577.3 265.582C575.16 266.097 573.67 267.08 569.693 269.793C569.928 270.164 570.15 270.549 570.354 270.949C572.231 274.618 573.16 279.313 574.485 285.628C580.443 284.519 586.403 283.431 592.364 282.363L590.932 264.011ZM293.623 217.642C297.084 225.606 296.891 228.551 297.727 239.649L300.012 270.021C300.228 270.192 300.444 270.359 300.663 270.545C302.006 271.684 303.506 273.134 305.763 275.08L314.674 282.765L321.456 225.429C313.937 224.23 305.316 222.18 293.623 217.642ZM596.206 281.674C600.97 280.827 605.736 279.993 610.502 279.168L610.142 250.338L593.638 248.769L596.206 281.674ZM614.378 278.5C618.704 277.756 623.031 277.02 627.358 276.291L627.614 251.999L614.03 250.708L614.378 278.5ZM634.086 252.173L633.844 275.202C649.492 272.59 665.145 270.058 680.799 267.56L682.089 249.867L634.086 252.173ZM189.913 255.215L210.688 274.879L230.165 252.96C228.584 251.123 227.009 249.284 225.436 247.446L189.913 255.215ZM756.734 261.999C750.462 263.018 744.189 264.025 737.916 265.029C737.871 265.699 737.832 266.425 737.813 267.218C737.773 268.948 737.881 270.886 738.128 272.421L756.453 271.241L756.734 261.999ZM257.517 234.47C257.231 234.624 256.923 234.735 256.605 234.798L227.978 240.465C236.779 250.764 245.641 261.028 254.761 271.192L261.222 232.477C260.464 232.885 257.561 234.446 257.517 234.47ZM265.547 230.149L258.708 271.127L276.502 269.104L273.78 225.729C269.442 228.055 268.236 228.702 265.547 230.149ZM277.545 223.712L280.365 268.664L281.638 268.52C281.646 268.517 281.655 268.516 281.664 268.514C287.838 267.898 291.325 267.413 294.005 267.608V267.613C294.7 267.664 295.34 267.762 295.959 267.914L293.853 239.94C292.95 227.958 293.423 226.438 289.272 217.445C284.968 219.742 281.177 221.766 277.545 223.712ZM543.043 237.693L534.022 245.692C541.105 252.946 548.052 260.136 554.907 267.221C555.659 266.212 556.498 265.296 557.36 264.404C557.459 264.301 557.568 264.208 557.687 264.128L553.502 236.344L543.043 237.693ZM709.74 248.33C709.463 248.487 709.152 248.574 708.834 248.582L685.996 249.679L684.739 266.934C696.186 265.11 707.631 263.296 719.074 261.479L709.74 248.33ZM571.955 210.864L573.97 246.084C574.023 247.005 573.42 247.836 572.528 248.072L559.708 251.476L561.557 263.754C563.779 264.5 565.631 265.521 567.145 266.832C571.48 263.872 573.501 262.502 576.391 261.806C579.285 261.109 582.807 261.017 590.629 260.135L589.617 247.178C589.615 247.164 589.613 247.15 589.611 247.137L587.51 210.392L571.955 210.864ZM526.164 243.213C526.151 244.234 526.142 245.245 526.142 246.216C526.142 248.937 526.209 256.292 526.299 265.242L534.229 265.234L541.351 258.804C536.335 253.625 531.307 248.445 526.164 243.213ZM712.274 245.19L723.354 260.799C727.024 260.215 730.693 259.627 734.361 259.041L735.117 217.788L713.246 216.7L712.274 245.19ZM738.256 258.416C744.483 257.419 750.711 256.416 756.936 255.404L758.045 218.928L738.998 217.98L738.256 258.416ZM760.842 254.764C765.729 253.966 770.617 253.17 775.502 252.359L778.142 162.763C773.348 162.221 768.497 161.704 763.685 161.236L760.842 254.764ZM183.608 249.247L186.501 251.986L222.57 244.099C221.946 243.368 221.318 242.637 220.694 241.906L183.608 249.247ZM634.127 248.283L682.372 245.965L683.212 234.427L634.281 233.636L634.127 248.283ZM613.982 246.802L627.655 248.102L628.035 211.986L613.539 211.375L613.982 246.802ZM553.675 211.42L559.126 247.612L570.001 244.725L568.071 210.982L553.675 211.42ZM593.373 244.843L610.093 246.433L609.905 231.492L592.57 230.804L593.373 244.843ZM691.001 215.595C690.879 217.772 689.976 219.906 688.321 221.519L688.069 221.229L688.068 221.231L686.28 245.778L708.404 244.715L709.365 216.508L691.001 215.595ZM508.128 243.401L522.272 244.371C522.285 242.754 522.309 241.09 522.352 239.361C517.596 234.552 512.798 229.736 507.905 224.936L508.128 243.401ZM492.774 242.349L504.241 243.135L503.977 221.104C500.158 217.396 496.292 213.701 492.376 210.026L492.774 242.349ZM527.54 212.216C526.986 221.301 526.504 230.062 526.279 237.808C527.96 239.51 529.641 241.21 531.306 242.909L540.122 235.094L536.568 211.94L527.54 212.216ZM189.307 218.711C188.987 227.301 187.651 234.762 185.336 242.308L235.163 232.445C230.051 218.087 233.332 204.824 235.359 190.547C233.152 189.671 230.946 188.793 228.759 187.928C216.442 183.056 204.648 178.429 195.666 174.984C193.97 174.334 192.482 173.772 191.002 173.212L189.307 218.711ZM479.227 197.964C478.171 198.737 476.946 199.288 475.615 199.539L476.131 241.207L488.887 242.081L488.446 206.359C485.407 203.544 482.332 200.745 479.227 197.964ZM455.984 191.708C454.491 198.28 450.603 216.745 449.431 235.537C449.45 236.82 449.47 238.096 449.49 239.379L472.242 240.94L471.729 199.402C468.11 198.461 465.363 195.305 465.047 191.481L455.984 191.708ZM432.497 192.208C426.945 192.306 423.101 193.401 419.816 195.488C418.127 196.562 416.561 197.951 415.007 199.641L415.69 234.529L442.954 238.818C441.9 219.078 436.339 197.914 434.759 192.226C433.978 192.205 433.218 192.195 432.497 192.208ZM510.197 221.746C514.363 225.828 518.458 229.918 522.519 234.006C522.751 227.734 523.121 220.94 523.541 213.945L510.197 221.746ZM411.215 204.353C410.545 205.278 409.866 206.243 409.16 207.288L393.163 230.986L411.794 233.918L411.215 204.353ZM540.479 211.821L543.835 233.676L552.923 232.503L549.765 211.54L540.479 211.821ZM239.077 192.023C237.035 206.272 234.153 218.579 239.013 231.683L254.878 228.542C254.996 228.478 259.559 226.024 262.569 224.403L266.172 202.819C257.783 199.464 248.618 195.812 239.077 192.023ZM634.321 229.752L683.495 230.548L684.196 220.931L678.282 213.695L634.501 212.73L634.321 229.752ZM384.427 168.143C381.844 169.344 379.211 170.606 376.503 171.951C374.73 172.832 372.796 173.807 370.88 174.771L366.496 226.79L388.927 230.32L390.075 228.619C389.905 228.478 389.76 228.308 389.647 228.118C389.63 228.089 388.672 226.503 387.71 224.48C386.739 222.44 385.673 220.045 385.643 217.662C385.394 198.299 384.643 174.701 384.427 168.143ZM592.348 226.909L609.857 227.604L609.651 211.212L591.404 210.445L592.348 226.909ZM366.811 176.826C363.646 178.431 360.333 180.124 356.914 181.882C355.475 196.428 354.086 210.742 352.78 224.634L362.649 226.187L366.811 176.826ZM399.214 161.786C395.656 163.176 392.012 164.713 388.257 166.395C388.365 169.61 389.253 196.364 389.526 217.611C389.539 218.621 390.337 220.964 391.217 222.812C391.655 223.733 392.091 224.554 392.419 225.146L405.941 205.115C407.698 202.513 409.371 200.212 411.096 198.19L411.09 197.955C411.09 197.937 411.09 197.918 411.09 197.9C409.287 193.508 408.074 188.39 410.496 182.635L400.384 163.756L399.214 161.786ZM351.428 184.705C343.906 188.593 335.998 192.734 328.091 196.888L325.269 220.754C332.662 221.76 339.327 222.14 347.661 223.747C348.858 211.025 350.119 197.979 351.428 184.705ZM266.895 222.076C272.382 219.129 278.938 215.623 287.162 211.235C282.86 209.507 276.815 207.084 269.861 204.3L266.895 222.076ZM324.616 198.71C314.968 203.788 305.67 208.713 296.926 213.367C307.391 217.332 315.174 219.177 322.064 220.281L324.616 198.71ZM513.799 175.582L482.854 189.715C482.893 190.053 482.918 190.396 482.918 190.744C482.918 192.304 482.511 193.774 481.802 195.055C490.565 202.904 499.051 210.896 507.313 218.935L523.828 209.279C524.515 198.196 525.274 186.809 525.78 176.277C525.835 175.13 525.874 174.054 525.924 172.929L513.799 175.582ZM440.098 192.103C441.32 196.541 443.916 206.606 445.884 218.639C447.445 206.824 449.495 196.947 450.639 191.841L440.098 192.103ZM682.225 210.03C681.648 210.014 681.068 210.102 680.511 210.286L686.495 217.607C687.532 215.792 687.368 213.468 685.91 211.787C684.934 210.662 683.59 210.068 682.225 210.03ZM739.191 214.102L758.162 215.046L759.81 160.878C755.467 160.479 751.201 160.126 747.054 159.833L739.191 214.102ZM719.439 187.519L713.813 212.841L735.297 213.908L739.216 186.853L719.439 187.519ZM690.473 188.493L688.665 209.019L688.627 209.016C688.698 209.092 688.774 209.163 688.844 209.243C689.547 210.054 690.069 210.96 690.43 211.912L690.44 211.679L709.878 212.645L715.432 187.652L690.473 188.493ZM652.291 198.613L652.506 209.244L675.049 209.739L660.443 191.874L652.291 198.613ZM635.52 190.079C634.739 194.934 634.718 200.473 634.557 208.849L648.62 209.158L648.41 198.762L635.52 190.079ZM530.184 163.415C530.044 167.557 529.878 171.881 529.658 176.465C529.168 186.663 528.448 197.626 527.782 208.322L549.182 207.671L543.182 167.828C538.847 166.532 534.539 165.015 530.184 163.415ZM629.217 189.542C627.18 190.992 625.065 193.346 622.966 196.184C620.304 199.78 617.657 203.948 614.784 207.541L628.104 208.103C628.267 200.372 628.414 194.658 629.217 189.542ZM553.092 207.553L567.85 207.104L565.837 171.919C563.82 171.761 561.803 171.582 559.786 171.358C555.526 170.886 551.379 170.054 547.282 168.983L553.092 207.553ZM270.953 197.765C280.078 201.417 288.595 204.833 293.19 206.681C293.616 206.844 294.002 207.096 294.323 207.419C294.339 207.41 294.354 207.402 294.37 207.394L305.489 130.499L282.896 126.203L270.953 197.765ZM636.514 169.503C620.896 170.718 605.095 172.216 589.235 172.522L591.183 206.548L609.959 207.338C610.007 207.267 610.06 207.198 610.117 207.134C613.322 203.581 616.48 198.419 619.843 193.874C622.871 189.781 626.078 186.015 630.231 184.627C631.417 180.098 633.356 175.459 636.514 169.503ZM663.438 189.399L677.97 207.177C680.157 206.047 682.697 205.889 684.974 206.657L686.641 187.729L671.445 182.779L663.438 189.399ZM571.733 206.986L587.287 206.514L585.347 172.576C580.149 172.609 574.945 172.5 569.742 172.194L571.733 206.986ZM297.913 205.506C306.7 200.835 316.061 195.893 325.539 190.915L331.588 139.776L311.414 131.625L308.673 131.104L297.913 205.506ZM239.986 185.421C249.419 189.165 258.84 192.917 267.263 196.285L271.569 170.483L243.867 163.73L239.986 185.421ZM473.964 185.673C471.141 185.673 468.893 187.921 468.893 190.744C468.893 193.568 471.14 195.814 473.964 195.814C476.787 195.814 479.034 193.568 479.034 190.744C479.034 187.921 476.787 185.673 473.964 185.673ZM643.176 170.751C639.61 177.195 637.574 181.668 636.397 185.988L650.213 195.294L657.986 188.867L643.176 170.751ZM414.367 183.399C412.209 187.838 412.739 191.322 414.118 195.014C415.26 193.964 416.453 193.026 417.734 192.212C419.34 191.192 421.07 190.382 422.962 189.769C420.811 186.718 418.482 184.352 414.367 183.399ZM329.014 189.094C336.936 184.941 344.772 180.85 352.194 177.028C353.109 167.821 354.03 158.587 354.98 149.229L334.699 141.033L329.014 189.094ZM434.153 152.075C423.718 153.76 413.629 156.434 402.901 160.39L403.138 160.786C403.243 160.904 403.333 161.036 403.406 161.176L403.758 161.832L414.228 179.446C420.624 180.62 424.289 184.705 427.001 188.786L427.01 188.802C429.19 188.445 431.577 188.288 434.214 188.328C434.21 186.722 434.173 170.147 434.153 152.075ZM451.427 150.165C447.289 150.43 443.273 150.809 439.331 151.319C439.351 169.471 439.387 186.588 439.391 188.235L451.509 187.935C451.508 187.492 451.473 168.532 451.427 150.165ZM467.15 149.677C463.522 149.684 460.019 149.758 456.604 149.897C456.651 168.396 456.685 187.206 456.687 187.806L465.601 187.583C466.888 184.21 470.155 181.789 473.964 181.789C474.721 181.789 475.454 181.896 476.158 182.075L490.584 151.303C485.346 150.408 479.84 149.832 473.979 149.73C471.654 149.69 469.379 149.672 467.15 149.677ZM666.438 165.962C659.824 167.005 653.17 167.951 646.469 168.642L660.979 186.394L668.921 179.827L666.438 165.962ZM479.627 183.824C480.387 184.448 481.036 185.201 481.559 186.038L512.375 171.963C512.5 171.906 512.631 171.862 512.766 171.833L526.098 168.915C526.193 166.524 526.273 164.239 526.346 161.996C516.416 158.302 506.134 154.436 494.525 152.046L479.627 183.824ZM721.805 158.969C712.16 159.184 702.516 160.29 692.83 161.721L690.816 184.596L716.302 183.737L721.805 158.969ZM211.188 174.066C217.453 176.513 224.119 179.132 231.14 181.909C232.851 182.586 234.578 183.276 236.304 183.96L240.089 162.81L215.243 156.753L211.188 174.066ZM688.88 162.322C682.701 163.282 676.502 164.336 670.272 165.347L672.739 179.115L686.991 183.759L688.88 162.322ZM725.79 158.932L720.309 183.604L739.78 182.947L743.167 159.566C737.227 159.196 731.619 158.963 726.613 158.931C726.333 158.929 726.067 158.932 725.79 158.932ZM359.979 151.248C359.195 158.979 358.441 166.58 357.681 174.208C363.402 171.281 368.798 168.551 373.625 166.154C377.29 164.334 380.842 162.649 384.311 161.08L359.979 151.248ZM192.531 132.13L191.256 166.388C193.277 167.146 195.493 167.986 197.983 168.941C200.792 170.018 204.253 171.372 207.533 172.648L211.47 155.832L200.629 153.19C198.427 152.686 198.715 149.463 200.972 149.357C201.166 149.348 201.361 149.369 201.549 149.417L212.355 152.051L216.441 134.6L193.152 129.774L192.531 132.13ZM244.554 159.9L272.211 166.644L275.517 146.837L247.914 141.119L244.554 159.9ZM547.485 162.236C551.839 163.484 556.152 164.444 560.499 164.926C569.09 165.878 577.755 166.171 586.467 166.077L585.943 146.45L577.757 145.279L547.485 162.236ZM590.052 154.828L590.351 166.015C606.63 165.63 623.066 164.002 639.505 162.775C639.888 162.747 640.271 162.712 640.654 162.682C640.755 162.61 640.861 162.544 640.969 162.484C640.931 161.302 640.839 158.362 640.66 152.411L590.052 154.828ZM647.108 151.464C647.291 157.571 647.387 160.671 647.43 162.021C661.287 160.486 675.182 157.816 689.238 155.677L688.399 142.415L647.108 151.464ZM530.737 134.572C530.736 137.603 530.695 145.233 530.398 156.371C534.48 157.895 538.457 159.365 542.363 160.653L543.64 159.938L549.153 135.726C548.543 135.684 548.048 135.647 547.424 135.605C542.271 135.262 536.618 134.909 530.737 134.572ZM216.128 152.972L240.773 158.98L244.111 140.331L220.245 135.388L216.128 152.972ZM364.028 111.807C362.799 123.658 361.587 135.472 360.392 147.226L389.174 158.856C389.206 158.869 389.238 158.882 389.269 158.896C391.992 157.729 394.668 156.639 397.305 155.621C396.506 144.843 395.872 133.706 395.437 122.405C384.496 118.469 374.005 114.47 364.028 111.807ZM548.205 157.381L573.892 142.993V137.48C573.515 137.455 573.132 137.427 572.563 137.389C571.116 137.29 569.132 137.146 566.698 136.968C563.113 136.706 558.318 136.36 553.074 135.996L548.205 157.381ZM692.237 141.572L693.095 155.106C702.812 153.71 712.612 152.649 722.537 152.483L721.895 135.073L692.237 141.572ZM496.437 145.752C507.532 148.023 517.365 151.522 526.55 154.938C526.815 144.417 526.853 137.264 526.854 134.354C516.965 133.815 506.541 133.353 496.512 133.1L496.437 145.752ZM746.433 108.431L748.231 153.409C751.924 153.673 755.695 153.98 759.521 154.325L752.143 106.999L746.433 108.431ZM399.384 123.811C399.798 134.137 400.374 144.32 401.093 154.201C412.383 150.09 423.085 147.316 434.149 145.585C434.146 141.452 434.141 137.128 434.142 133.458C422.141 131.444 410.537 127.748 399.384 123.811ZM724.994 113.81L726.422 152.458C731.86 152.485 737.934 152.74 744.334 153.145L742.584 109.396L724.994 113.81ZM630.196 137.593C620.205 140.099 612.4 139.463 602.594 139.043L589.819 146.111L589.948 150.945L640.547 148.529C640.429 144.567 640.301 140.012 640.162 135.093L630.196 137.593ZM646.591 133.479C646.737 138.69 646.869 143.299 646.994 147.513L688.151 138.493L687.188 123.294L646.591 133.479ZM335.172 137.036L355.393 145.206C356.564 133.702 357.751 122.152 358.954 110.56L338.833 106.083L335.172 137.036ZM457.342 132.684C457.009 132.684 456.835 132.684 456.557 132.685C456.568 135.88 456.577 139.769 456.587 143.438C462.171 143.205 467.971 143.152 474.09 143.258C480.644 143.371 486.768 144.024 492.557 145.025L492.629 133.007C480.642 132.755 471.43 132.687 465.065 132.676C461.744 132.671 459.176 132.684 457.342 132.684ZM450.692 132.796C449.148 132.923 447.283 133.111 445.41 133.293C443.538 133.475 441.657 133.651 440.048 133.759C439.777 133.777 439.571 133.782 439.32 133.797C439.32 137.163 439.325 141.091 439.327 144.852C443.275 144.353 447.29 143.977 451.409 143.712C451.399 140.011 451.39 135.979 451.379 132.753C451.137 132.77 450.95 132.775 450.692 132.796ZM248.598 137.295L276.156 143.004L279.081 125.478L251.646 120.261L248.598 137.295ZM577.774 136.153V141.359L587.797 142.791L600.028 136.024V130.445L587.803 129.469L577.774 136.153ZM691.019 122.334L691.989 137.651L721.747 131.13L721.144 114.775L691.019 122.334ZM221.132 131.604L244.795 136.507L247.831 119.535L224.975 115.188L221.132 131.604ZM309.229 127.256L312.327 127.846C312.452 127.869 312.575 127.906 312.692 127.953L332.061 135.779L335.657 105.376L313.118 100.362L309.229 127.256ZM631.032 115.441L603.912 130.63V135.214C613.174 135.627 620.255 136.083 629.251 133.826L640.047 131.117C639.865 124.544 639.69 117.925 639.519 110.926L631.032 115.441ZM553.946 132.165C558.947 132.513 563.534 132.842 566.981 133.094C569.415 133.272 571.397 133.416 572.827 133.514C573.885 133.585 574.273 133.598 574.601 133.615C574.65 133.574 574.702 133.535 574.756 133.499L585.925 126.053L585.372 105.339C577.875 103.742 569.637 101.977 561.23 100.173L553.946 132.165ZM531.146 130.706C536.974 131.04 542.574 131.391 547.683 131.731C548.528 131.788 549.206 131.838 550.025 131.894L557.432 99.3604C551.273 98.0365 545.304 96.7507 538.985 95.3818L531.146 130.706ZM194.145 126.015L217.327 130.817L221.156 114.463L198.338 110.123L194.145 126.015ZM515.276 129.885C519.31 130.068 523.302 130.27 527.216 130.484L535.189 94.5605C530.134 93.4635 525.172 92.3788 520.174 91.2852L515.276 129.885ZM444.603 92.3252C442.46 101.335 439.441 109.487 439.361 116.644C439.337 118.794 439.33 124.127 439.325 129.903C439.493 129.894 439.614 129.897 439.789 129.886C441.315 129.784 443.17 129.609 445.034 129.428C446.898 129.246 448.774 129.059 450.374 128.928C450.742 128.897 451.029 128.881 451.359 128.856C451.342 124.489 451.324 119.852 451.307 118.271C451.247 112.942 448.931 105.835 446.486 98.2979C445.85 96.3352 445.208 94.3391 444.603 92.3252ZM501.501 85.6582C497.219 95.4735 496.721 97.6806 496.65 109.624L496.534 129.216C501.43 129.339 506.406 129.511 511.383 129.719L516.363 90.4521C514.365 90.0138 512.306 89.566 510.335 89.1318C507.081 88.4151 504.128 87.1561 501.501 85.6582ZM398.605 84.6973C398.594 96.3012 398.813 108.006 399.227 119.576C410.564 123.618 422.213 127.453 434.145 129.524C434.149 124.503 434.159 120.513 434.178 118.056L399.815 84.4668L398.605 84.6973ZM646.023 107.466C646.121 111.395 646.317 119.408 646.318 119.467C646.331 119.765 646.302 120.065 646.233 120.355C646.316 123.498 646.395 126.488 646.478 129.504L674.132 122.566L668.99 95.2451L646.023 107.466ZM492.204 78.5186C480.588 92.8563 469.86 104.504 456.431 116.794C456.46 117.27 456.479 117.744 456.484 118.214C456.502 119.816 456.52 124.473 456.537 128.795C456.916 128.797 456.871 128.8 457.337 128.8C459.165 128.794 461.741 128.786 465.072 128.792C471.445 128.803 480.666 128.871 492.651 129.123L492.767 109.602C492.839 97.2897 493.62 94.002 498.192 83.5332C496.805 82.5488 495.522 81.5301 494.381 80.5332C493.589 79.8412 492.873 79.1683 492.204 78.5186ZM589.801 125.731L602.125 126.718C602.323 126.734 602.518 126.781 602.702 126.856L625.825 113.905C621.254 112.946 608.75 110.317 589.279 106.175L589.801 125.731ZM283.536 122.37L306.046 126.65L309.949 99.6572C305.637 98.6981 304.154 93.1995 301.062 90.3076L289.463 86.8633L283.536 122.37ZM252.329 116.438L279.721 121.646L282.394 105.636L255.438 99.0654L252.329 116.438ZM671.947 93.6729L672.623 93.5449L677.905 121.619L686.939 119.353L684.877 86.792L671.947 93.6729ZM773.276 109.819L807.36 120.694L810.636 104.622L778.453 94.3525L773.276 109.819ZM689.808 103.207L690.77 118.392L751.541 103.146L748.705 84.9551L689.808 103.207ZM366.214 90.8496C365.62 96.5277 365.027 102.206 364.437 107.891C374.412 110.493 384.715 114.345 395.288 118.166C394.916 107.3 394.72 96.3279 394.722 85.4346L366.214 90.8496ZM199.33 106.359L223.173 110.893C223.303 110.867 223.437 110.856 223.57 110.857C223.927 110.864 224.275 110.969 224.576 111.16L248.516 115.712L255.483 76.7725L210.649 63.46L199.33 106.359ZM441.537 56.0352C431.662 57.0997 420.283 60.7261 411.935 64.3867C407.282 66.4269 403.53 68.5093 401.632 69.9697C401.525 70.0518 401.499 70.1064 401.407 70.1875C402.545 70.741 403.437 71.6722 403.946 72.7217C404.642 74.1565 404.776 75.7791 404.485 77.3555C404.211 78.8386 403.483 80.3298 402.361 81.5244L434.406 112.849C435.366 103.575 439.17 94.2698 440.79 84.7393C440.787 84.6907 440.786 84.6415 440.785 84.5928C440.851 75.421 441.095 65.8157 441.537 56.0352ZM448.021 55.8965C447.619 64.6709 447.386 73.2961 447.292 81.6035C448.164 86.4621 449.76 91.6122 451.411 96.7021C453.119 101.967 454.89 107.146 455.821 112.08C468.287 100.498 478.432 89.3805 489.475 75.7217C488.981 75.1894 488.532 74.6956 488.214 74.3545C487.851 73.9655 487.502 73.6763 487.683 73.8037C481.617 69.5267 473.521 64.8407 465.614 61.3271C459.208 58.4807 452.871 56.4435 448.021 55.8965ZM589.673 102.287C613.347 107.324 630.397 110.899 630.519 110.925C630.674 110.957 630.825 111.008 630.968 111.076L639.416 106.581C639.189 96.9711 638.994 87.6588 638.894 79.9932C638.836 77.5064 638.781 75.1602 638.725 72.627L596.245 64.7012L589.673 102.287ZM755.635 104.191L769.576 108.639L774.753 93.1719L752.826 86.1768L755.635 104.191ZM360.899 91.8975C354.436 93.3069 347.537 95.4541 340.289 93.7715L339.291 102.208L359.358 106.672C359.871 101.744 360.385 96.8213 360.899 91.8975ZM645.409 71.1025C645.339 71.7314 645.292 72.2639 645.293 72.5566C645.304 74.7534 645.332 77.2874 645.367 79.9502C645.615 90.6968 645.739 95.8844 645.917 103.122L668.183 91.2764L667.979 64.4189L645.409 71.1025ZM256.123 95.2354L283.034 101.795L285.712 85.749L259.228 77.8848L256.123 95.2354ZM313.675 96.5098L336.116 101.502L337.101 93.1777L314.718 89.3037L313.675 96.5098ZM562.126 96.3936C570.393 98.1678 578.483 99.8997 585.873 101.474L592.426 63.9883L577.186 61.1445C576.286 60.9768 575.461 60.8051 574.678 60.6279L562.126 96.3936ZM779.686 90.6709L811.416 100.794L815.044 82.9912L785.655 72.8369L779.686 90.6709ZM726.022 59.623C723.947 61.6977 718.087 67.4407 714.074 70.1523C706.203 75.4705 692.878 82.572 688.642 84.8008L689.555 99.2197L748.102 81.0781L745.897 66.9424C743.163 66.6898 740.271 66.1131 737.314 65.1855C732.919 63.8063 729.068 61.8827 726.022 59.623ZM305.605 89.793L310.323 95.7637L310.507 95.8037L311.527 88.752L310.577 88.5869L305.605 89.793ZM561.364 54.2607C558.371 55.0588 555.401 55.8926 552.441 56.7246L540.121 91.6543C546.35 93.0034 552.225 94.2692 558.297 95.5742L570.923 59.5967C567.523 58.4517 564.951 56.8886 561.364 54.2607ZM547.874 57.9971C542.741 59.4065 537.611 60.7158 532.409 61.6699L528.379 89.1045C531.029 89.6819 533.636 90.2494 536.294 90.8262L547.874 57.9971ZM365.462 48.4785C358.572 49.2783 351.879 50.0386 345.376 50.7686L340.748 89.8926C347.233 91.5501 354.03 89.2956 361.322 87.8389C362.704 74.6349 364.087 61.4902 365.462 48.4785ZM759.745 63.8867C759.229 64.353 758.665 64.7605 758.075 65.0977C756.344 66.0865 754.359 66.63 752.187 66.9004C751.434 66.994 750.647 67.0416 749.849 67.0684L752.158 81.8867L775.986 89.4893L781.984 71.5693L759.745 63.8867ZM342.074 51.1367C334.468 51.9848 327.196 52.782 321.007 53.4307C320.671 53.4659 320.238 53.508 319.89 53.5439L315.273 85.46L337.557 89.3154L342.074 51.1367ZM683.181 59.9922C682.131 60.3461 680.876 60.6734 679.273 61.0752L671.854 63.2725L672.051 89.2178L684.608 82.5371L683.181 59.9922ZM528.39 62.3184C523.869 62.9632 519.275 63.2753 514.585 63.0713L512.217 85.5684C516.269 86.4601 520.433 87.3676 524.577 88.2725L528.39 62.3184ZM395.712 44.8818C387.647 45.8639 379.212 46.8683 370.732 47.8604C369.372 60.7344 368.002 73.7484 366.634 86.8174L394.735 81.4805C394.792 69.039 395.11 56.7458 395.712 44.8818ZM316.571 53.875C309.996 54.5262 302.206 55.231 294.632 55.8965L290.107 83.0029L302.256 86.6104C305.463 85.8326 308.79 84.2397 312.083 84.9072L316.571 53.875ZM505.171 61.957C501.512 66.7587 498.028 71.2465 494.647 75.4814C495.342 76.1644 496.102 76.8798 496.937 77.6084C499.966 80.254 503.88 82.9916 508.418 84.5566L510.71 62.7871C508.879 62.5964 507.033 62.3217 505.171 61.957ZM290.636 56.251C279.256 57.2395 269.806 58.0166 269.747 58.0215H269.771C266.725 58.2942 263.886 58.5771 261.183 58.8467L259.861 74.0215L286.356 81.8887L290.636 56.251ZM689.979 49.3945C689.973 49.4144 689.966 49.4345 689.959 49.4541C688.563 53.4575 688.525 55.4671 687.124 57.4385C687.062 57.526 686.992 57.6091 686.925 57.6924L688.371 80.541C694.018 77.5264 705.378 71.34 711.899 66.9336C715.045 64.8079 720.723 59.3566 723.063 57.0684C721.924 55.8954 720.985 54.6404 720.325 53.2529C719.844 52.2417 719.527 51.1181 719.448 49.9658L692.696 40.7236L689.979 49.3945ZM398.696 73.3955C398.667 75.4722 398.646 77.5533 398.632 79.6406C399.818 79.0217 400.44 77.8753 400.666 76.6494C400.825 75.7859 400.707 74.942 400.452 74.416C400.197 73.8903 399.946 73.6624 399.382 73.5615C399.153 73.5206 398.924 73.4645 398.696 73.3955ZM799.436 46.9043C798.669 47.9467 797.762 48.7477 796.594 49.1533C795.593 49.5007 794.571 49.4865 793.549 49.2529L787.71 66.6992L816.349 76.5928L820.749 54.999L799.436 46.9043ZM211.64 59.7021L256.062 72.8936L257.251 59.2344C250.11 59.9308 243.968 60.4291 237.986 60.1982C229.922 59.8869 222.199 58.1618 213.166 53.9199L211.64 59.7021ZM449.075 37.9209C448.738 42.6257 448.452 47.3247 448.213 51.9951C453.854 52.5404 460.47 54.7915 467.191 57.7783C475.368 61.4119 483.618 66.1864 489.92 70.6299C490.447 71.0013 490.656 71.2798 491.054 71.7061C491.296 71.9663 491.63 72.3285 491.934 72.6592C494.865 68.9798 497.875 65.1118 501.021 60.9961C493.494 58.979 485.703 55.3921 477.578 49.627C465.569 41.1058 456.942 38.5138 450.607 38.002C450.079 37.9593 449.572 37.9363 449.075 37.9209ZM609.101 49.9014C606.488 49.8968 603.747 49.9136 600.958 49.9404L597.107 60.9111L638.634 68.6592C638.5 62.6134 638.388 56.9795 638.275 51.3379C632.095 50.3405 621.748 49.9236 609.101 49.9014ZM418.953 41.9746C413.037 42.7379 406.645 43.5443 399.627 44.4053C399.241 51.8674 398.968 59.5045 398.804 67.252C398.957 67.1331 399.101 67.0167 399.264 66.8916C401.669 65.0412 405.547 62.946 410.375 60.8291C414.434 59.0493 419.138 57.2834 424.068 55.79C423.788 55.5627 423.575 55.261 423.456 54.9199L418.953 41.9746ZM660.391 29.5654C659.475 30.7133 658.578 31.8677 657.721 33.0381C654.35 37.6375 651.021 46.449 648.777 54.6045C647.548 59.0722 646.63 63.4771 646.041 66.8652L667.948 60.3789L667.732 32.1016L660.391 29.5654ZM758.825 50.8486C759.892 51.9738 760.773 53.177 761.401 54.499C761.9 55.5485 762.224 56.7194 762.286 57.918L784.038 65.4316L790.013 47.583C789.039 46.7792 788.327 45.7319 787.953 44.5811L758.825 50.8486ZM732.902 47.1396C731.978 47.1329 731.117 47.1796 730.339 47.2764C728.783 47.47 727.572 47.8688 726.861 48.2744C726.152 48.6798 725.992 48.9694 725.923 49.1895C725.854 49.4096 725.82 49.737 726.171 50.4756C726.522 51.2144 727.289 52.2353 728.455 53.2832C730.788 55.3791 734.655 57.5671 739.252 59.0098C743.849 60.452 748.274 60.8646 751.387 60.4775C752.943 60.2839 754.154 59.8842 754.864 59.4785C755.575 59.0728 755.734 58.7846 755.803 58.5645C755.872 58.3443 755.907 58.0175 755.556 57.2793C755.204 56.5405 754.438 55.5195 753.271 54.4717C750.938 52.3758 747.071 50.1857 742.474 48.7432C739.025 47.6615 735.675 47.1599 732.902 47.1396ZM596.823 49.9961C591.429 50.073 585.839 50.1879 580.056 50.3525L580.054 50.3037C579.435 50.3966 578.814 50.4883 578.202 50.5859L575.972 56.9375C576.586 57.0669 577.19 57.1952 577.897 57.3271L593.244 60.1904L596.823 49.9961ZM671.822 59.2314L678.197 57.3438C678.224 57.3361 678.251 57.3288 678.277 57.3223C680.383 56.7948 681.802 56.3977 682.66 56.0488C683.518 55.7001 683.736 55.5007 683.958 55.1885C684.4 54.567 684.805 52.4554 686.272 48.2344L689.023 39.4561L671.626 33.4463L671.822 59.2314ZM509.828 56.2695C516.178 57.0862 522.361 56.7364 528.618 55.7568C528.869 55.7175 529.122 55.6684 529.373 55.627L532.446 34.707L526.084 30.4443L509.828 56.2695ZM573.816 51.3486C571.272 51.8373 568.756 52.3981 566.264 53.0068C568.314 54.3955 570.008 55.2774 572.192 55.9785L573.816 51.3486ZM442.554 38.418C440.265 38.8206 438.265 39.3585 436.262 39.6484C432.691 40.1652 428.004 40.7947 422.889 41.4648L427.125 53.6445C427.266 54.053 427.266 54.4972 427.127 54.9062C431.983 53.5792 436.971 52.5706 441.727 52.1104C441.957 47.5685 442.232 42.9976 442.554 38.418ZM533.407 54.877C539.002 53.7255 544.678 52.1423 550.519 50.5L551.57 47.5186L536.019 37.0996L533.407 54.877ZM260.775 24.2607C254.632 25.7667 248.42 27.2685 242.119 28.7617L239.761 53.7715C245.129 53.8562 251.003 53.3307 258.025 52.6436L260.775 24.2607ZM238.128 29.7129C231.645 31.2385 225.033 32.7611 218.347 34.2842L214.946 47.1748C217.597 48.3298 223.438 50.8701 223.521 50.9062C223.809 51.0303 224.078 51.1964 224.318 51.3975C228.289 52.6386 232.022 53.2977 235.876 53.5908L238.128 29.7129ZM295.832 15.373C285.636 18.0502 275.299 20.6802 264.772 23.2803L261.964 52.2646C264.277 52.0375 266.608 51.8058 269.194 51.5742C269.202 51.5742 269.211 51.5742 269.219 51.5742C269.293 51.5681 280.036 50.6801 292.362 49.6025L295.832 15.373ZM805.743 29.8164C803.95 35.8423 802.624 40.3366 801.293 43.4561L821.534 51.1426L824.256 37.791C818.42 35.2717 812.231 32.6051 805.743 29.8164ZM326.38 7.10156C317.591 9.5573 308.762 11.9603 299.843 14.3213L296.3 49.2529C304.947 48.4878 313.851 47.6773 320.332 46.998C320.921 46.9363 321.653 46.855 322.259 46.791L326.38 7.10156ZM752.245 45.9043C753.292 46.4885 754.278 47.1072 755.195 47.7568L755.176 47.6611L787.658 40.6709C787.745 39.8532 787.897 39.0073 788.098 38.124C788.961 34.3212 790.733 29.736 792.573 24.1729C783.541 20.3034 774.393 16.3904 765.023 12.4111L752.245 45.9043ZM648.513 25.4619C648.067 26.8676 647.467 28.8338 646.77 31.4668C645.619 35.81 644.546 41.1502 644.601 44.0713C644.611 44.6349 644.627 45.3504 644.638 45.9258C646.709 39.6588 649.284 33.6009 652.5 29.2129C652.965 28.5789 653.437 27.9523 653.914 27.3281L648.513 25.4619ZM796.146 25.7012C794.322 31.206 792.622 35.7388 791.885 38.9844C791.455 40.8771 791.382 42.3204 791.588 43.1992C791.793 44.0779 792.079 44.4871 793.067 44.9678C794.358 45.5949 794.971 45.606 795.321 45.4844C795.672 45.3624 796.251 44.9018 796.999 43.4834C798.323 40.9741 799.873 35.8462 802.146 28.2686C800.219 27.441 798.11 26.5436 796.146 25.7012ZM212.652 35.5713C207.348 36.769 201.966 37.9703 196.514 39.1729C203.134 42.0417 205.801 43.1966 210.143 45.085L212.652 35.5713ZM639.254 34.9883C638.928 35.2274 638.598 35.4606 638.259 35.6836C632.948 39.1759 627.04 41.6333 620.837 43.457C627.652 43.6383 633.517 44.0348 638.141 44.7354C638.138 44.5691 638.132 44.3566 638.129 44.1914C638.077 41.3715 638.574 38.1448 639.254 34.9883ZM741.529 41.7773C742.482 42.009 743.442 42.2643 744.411 42.5684C745.926 43.0435 747.37 43.5878 748.746 44.1826L761.447 10.8916C753.088 7.34597 744.802 3.85182 736.686 0.448242L741.529 41.7773ZM580.629 43.667C587.001 42.7304 593.553 41.9591 599.977 41.0088L608.97 15.3857C605.612 14.8424 602.013 14.0697 598.021 12.79C596.181 12.2006 594.317 11.2007 592.456 9.96289L580.629 43.667ZM604.332 40.3262C608.915 39.5684 613.396 38.676 617.658 37.5195L606.415 34.3896L604.332 40.3262ZM607.705 30.7168L624.417 35.3691C628.116 33.9938 631.578 32.3342 634.703 30.2793C636.951 28.8007 639.044 26.2613 641.375 22.9971L626.388 17.8184C623.778 17.2798 621.247 16.9291 618.657 16.6221C616.784 16.4001 614.868 16.1911 612.891 15.9414L607.705 30.7168Z" fill="#DDDADD"/>
</svg>
