<svg width="64" height="64" viewBox="0 0 64 64" fill="none" xmlns="http://www.w3.org/2000/svg">
<path d="M34.7896 32.0006C34.7896 33.5416 33.5405 34.7902 32 34.7902C30.4595 34.7902 29.2104 33.541 29.2104 32.0006C29.2104 30.4601 30.4595 29.2109 32 29.2109C33.5405 29.2109 34.7896 30.4601 34.7896 32.0006ZM64 32.8552C63.553 49.8586 49.8586 63.553 32.8552 64V57.9202C32.8552 57.4475 32.4726 57.065 32 57.065C31.5274 57.065 31.1448 57.4475 31.1448 57.9202V64C14.1414 63.553 0.446978 49.8586 0 32.8552H6.21722C6.68985 32.8552 7.07241 32.4726 7.07241 32C7.07241 31.5274 6.68985 31.1448 6.21722 31.1448H0C0.446978 14.1414 14.1414 0.446978 31.1448 0V6.07982C31.1448 6.55245 31.5274 6.93501 32 6.93501C32.4726 6.93501 32.8552 6.55245 32.8552 6.07982V0C49.8586 0.446978 63.553 14.1414 64 31.1448H57.7828C57.3102 31.1448 56.9276 31.5274 56.9276 32C56.9276 32.4726 57.3102 32.8552 57.7828 32.8552H64ZM37.7805 7.72805C46.8307 9.87571 54.0827 17.1066 56.2554 26.1499C56.3501 26.5422 56.7001 26.8056 57.0861 26.8056C57.1522 26.8056 57.2195 26.7976 57.2868 26.7816C57.7457 26.6716 58.0285 26.2098 57.9185 25.7503C55.5964 16.0861 47.8461 8.35918 38.175 6.06443C37.7172 5.9561 37.2548 6.23945 37.1454 6.69897C37.0359 7.1585 37.3204 7.61916 37.7799 7.72862L37.7805 7.72805ZM36.8917 23.0547L37.8096 26.1961L40.9396 27.1083L45.8541 18.146L36.8917 23.0547ZM7.74458 26.1499C9.9179 17.1066 17.1699 9.87571 26.2195 7.72805C26.679 7.61916 26.9635 7.15793 26.854 6.6984C26.7452 6.23888 26.2834 5.95382 25.8244 6.06385C16.1534 8.35861 8.40308 16.0861 6.08096 25.7497C5.97092 26.2092 6.25371 26.671 6.71266 26.7811C6.77993 26.797 6.84721 26.805 6.91334 26.805C7.29932 26.805 7.64994 26.5416 7.74401 26.1494L7.74458 26.1499ZM18.146 18.146L23.0604 27.1083L26.1961 26.1904L27.1083 23.0604L18.146 18.146ZM26.2195 56.272C17.1117 54.1106 9.84721 46.8255 7.71209 37.7109C7.60433 37.2509 7.14481 36.9652 6.68415 37.0735C6.22406 37.1813 5.939 37.6414 6.04675 38.1015C8.32782 47.8409 16.0918 55.6271 25.8244 57.9367C25.8905 57.9527 25.9572 57.9601 26.0228 57.9601C26.4099 57.9601 26.7605 57.6956 26.854 57.3022C26.9629 56.8426 26.679 56.3814 26.2195 56.272ZM27.1083 40.9396L26.1961 37.8096L23.0547 36.8917L18.146 45.8541L27.1083 40.9396ZM36.878 36.2965L51.5918 32L36.878 27.7041C36.5975 27.622 36.3786 27.4031 36.2965 27.1226L32 12.4082L27.7035 27.1226C27.6214 27.4031 27.4025 27.622 27.122 27.7041L12.4076 32.0006L27.1226 36.297C27.4031 36.3791 27.622 36.5981 27.7041 36.8786L32.0006 51.5924L36.297 36.878C36.3791 36.5975 36.5975 36.3786 36.878 36.2965ZM36.8917 40.9396L45.8541 45.8541L40.9453 36.8917L37.8096 37.8096L36.8917 40.9396ZM57.9533 38.1009C58.061 37.6408 57.7754 37.1807 57.3159 37.073C56.854 36.9647 56.3957 37.2509 56.2879 37.7104C54.1528 46.825 46.8883 54.1106 37.7805 56.2714C37.321 56.3803 37.0365 56.8415 37.146 57.301C37.2395 57.6944 37.5901 57.959 37.9772 57.959C38.0428 57.959 38.1089 57.9515 38.1756 57.9356C47.9088 55.626 55.6722 47.8409 57.9533 38.1009Z" fill="#216A83"/>
</svg>
