<svg width="64" height="64" viewBox="0 0 64 64" fill="none" xmlns="http://www.w3.org/2000/svg">
<path d="M62.4713 30.0463L55.7088 28.3563C54.9407 23.3021 52.5765 18.6259 48.9616 15.011C45.3467 11.396 40.6705 9.03185 35.6163 8.26379L33.9263 1.51379C33.8179 1.08134 33.5681 0.697494 33.2166 0.423228C32.8652 0.148962 32.4321 0 31.9863 0C31.5405 0 31.1074 0.148962 30.7559 0.423228C30.4044 0.697494 30.1547 1.08134 30.0463 1.51379L28.3563 8.27629C23.3021 9.04435 18.6259 11.4085 15.011 15.0235C11.396 18.6384 9.03185 23.3146 8.26379 28.3688L1.51379 30.0588C1.08134 30.1672 0.697494 30.4169 0.423228 30.7684C0.148962 31.1199 0 31.553 0 31.9988C0 32.4446 0.148962 32.8777 0.423228 33.2291C0.697494 33.5806 1.08134 33.8304 1.51379 33.9388L8.27629 35.6288C9.04435 40.683 11.4085 45.3592 15.0235 48.9741C18.6384 52.589 23.3146 54.9532 28.3688 55.7213L30.0588 62.4838C30.1672 62.9162 30.4169 63.3001 30.7684 63.5743C31.1199 63.8486 31.553 63.9976 31.9988 63.9976C32.4446 63.9976 32.8777 63.8486 33.2291 63.5743C33.5806 63.3001 33.8304 62.9162 33.9388 62.4838L35.6288 55.7213C40.683 54.9532 45.3592 52.589 48.9741 48.9741C52.589 45.3592 54.9532 40.683 55.7213 35.6288L62.4838 33.9388C62.9162 33.8304 63.3001 33.5806 63.5743 33.2291C63.8486 32.8777 63.9976 32.4446 63.9976 31.9988C63.9976 31.553 63.8486 31.1199 63.5743 30.7684C63.3001 30.4169 62.9162 30.1672 62.4838 30.0588L62.4713 30.0463ZM38.5988 35.7713L34.8138 31.9863L38.5988 28.2013L53.7363 31.9863L38.5988 35.7713ZM25.3738 35.7713L10.2363 31.9863L25.3788 28.2013L29.1588 31.9863L25.3738 35.7713ZM51.4288 27.2863L39.6363 24.3363L36.6863 12.5438C40.2632 13.4047 43.5327 15.237 46.1342 17.8384C48.7356 20.4399 50.5679 23.7094 51.4288 27.2863ZM35.7713 25.3738L31.9863 29.1588L28.2013 25.3738L31.9863 10.2363L35.7713 25.3738ZM27.2863 12.5438L24.3363 24.3363L12.5438 27.2863C13.4047 23.7094 15.237 20.4399 17.8384 17.8384C20.4399 15.237 23.7094 13.4047 27.2863 12.5438ZM12.5363 36.6863L24.3363 39.6363L27.2863 51.4288C23.7094 50.5679 20.4399 48.7356 17.8384 46.1342C15.237 43.5327 13.4047 40.2632 12.5438 36.6863H12.5363ZM28.1938 38.5988L31.9863 34.8138L35.7713 38.5988L31.9863 53.7363L28.1938 38.5988ZM36.6788 51.4288L39.6288 39.6363L51.4213 36.6863C50.561 40.2622 48.7298 43.5311 46.1298 46.1325C43.5297 48.7339 40.2618 50.5667 36.6863 51.4288H36.6788Z" fill="#1A5E75"/>
</svg>
