<svg width="96" height="96" viewBox="0 0 96 96" fill="none" xmlns="http://www.w3.org/2000/svg">
<path d="M93.7069 45.0694L83.5632 42.5344C82.4111 34.9531 78.8648 27.9388 73.4424 22.5164C68.0201 17.0941 61.0058 13.5478 53.4244 12.3957L50.8894 2.27069C50.7269 1.622 50.3522 1.04624 49.825 0.634842C49.2977 0.223444 48.6482 0 47.9794 0C47.3107 0 46.6611 0.223444 46.1339 0.634842C45.6067 1.04624 45.232 1.622 45.0694 2.27069L42.5344 12.4144C34.9531 13.5665 27.9388 17.1128 22.5164 22.5352C17.0941 27.9576 13.5478 34.9718 12.3957 42.5532L2.27069 45.0882C1.622 45.2508 1.04624 45.6254 0.634842 46.1526C0.223444 46.6799 0 47.3294 0 47.9982C0 48.6669 0.223444 49.3165 0.634842 49.8437C1.04624 50.371 1.622 50.7456 2.27069 50.9082L12.4144 53.4432C13.5665 61.0245 17.1128 68.0388 22.5352 73.4612C27.9576 78.8835 34.9718 82.4298 42.5532 83.5819L45.0882 93.7257C45.2508 94.3744 45.6254 94.9501 46.1526 95.3615C46.6799 95.7729 47.3294 95.9964 47.9982 95.9964C48.6669 95.9964 49.3165 95.7729 49.8437 95.3615C50.371 94.9501 50.7456 94.3744 50.9082 93.7257L53.4432 83.5819C61.0245 82.4298 68.0388 78.8835 73.4612 73.4612C78.8835 68.0388 82.4298 61.0245 83.5819 53.4432L93.7257 50.9082C94.3744 50.7456 94.9501 50.371 95.3615 49.8437C95.7729 49.3165 95.9964 48.6669 95.9964 47.9982C95.9964 47.3294 95.7729 46.6799 95.3615 46.1526C94.9501 45.6254 94.3744 45.2508 93.7257 45.0882L93.7069 45.0694ZM57.8982 53.6569L52.2207 47.9794L57.8982 42.3019L80.6044 47.9794L57.8982 53.6569ZM38.0607 53.6569L15.3544 47.9794L38.0682 42.3019L43.7382 47.9794L38.0607 53.6569ZM77.1432 40.9294L59.4544 36.5044L55.0294 18.8157C60.3947 20.107 65.299 22.8554 69.2012 26.7576C73.1034 30.6598 75.8518 35.5641 77.1432 40.9294ZM53.6569 38.0607L47.9794 43.7382L42.3019 38.0607L47.9794 15.3544L53.6569 38.0607ZM40.9294 18.8157L36.5044 36.5044L18.8157 40.9294C20.107 35.5641 22.8554 30.6598 26.7576 26.7576C30.6598 22.8554 35.5641 20.107 40.9294 18.8157ZM18.8044 55.0294L36.5044 59.4544L40.9294 77.1432C35.5641 75.8518 30.6598 73.1034 26.7576 69.2012C22.8554 65.299 20.107 60.3947 18.8157 55.0294H18.8044ZM42.2907 57.8982L47.9794 52.2207L53.6569 57.8982L47.9794 80.6044L42.2907 57.8982ZM55.0182 77.1432L59.4432 59.4544L77.1319 55.0294C75.8415 60.3933 73.0948 65.2967 69.1947 69.1987C65.2946 73.1008 60.3927 75.85 55.0294 77.1432H55.0182Z" fill="#2F3037"/>
</svg>
