<svg width="80" height="80" viewBox="0 0 80 80" fill="none" xmlns="http://www.w3.org/2000/svg">
<path d="M43.487 40.0007C43.487 41.927 41.9256 43.4877 40 43.4877C38.0744 43.4877 36.513 41.9263 36.513 40.0007C36.513 38.0751 38.0744 36.5137 40 36.5137C41.9256 36.5137 43.487 38.0751 43.487 40.0007ZM80 41.069C79.4413 62.3233 62.3233 79.4413 41.069 80V72.4002C41.069 71.8094 40.5908 71.3312 40 71.3312C39.4092 71.3312 38.931 71.8094 38.931 72.4002V80C17.6767 79.4413 0.558723 62.3233 0 41.069H7.77152C8.36232 41.069 8.84051 40.5908 8.84051 40C8.84051 39.4092 8.36232 38.931 7.77152 38.931H0C0.558723 17.6767 17.6767 0.558723 38.931 0V7.59977C38.931 8.19056 39.4092 8.66876 40 8.66876C40.5908 8.66876 41.069 8.19056 41.069 7.59977V0C62.3233 0.558723 79.4413 17.6767 80 38.931H72.2285C71.6377 38.931 71.1595 39.4092 71.1595 40C71.1595 40.5908 71.6377 41.069 72.2285 41.069H80ZM47.2256 9.66006C58.5383 12.3446 67.6033 21.3833 70.3193 32.6874C70.4376 33.1777 70.8751 33.507 71.3576 33.507C71.4403 33.507 71.5244 33.497 71.6085 33.4771C72.1822 33.3395 72.5356 32.7623 72.3981 32.1879C69.4954 20.1076 59.8076 10.449 47.7188 7.58053C47.1465 7.44513 46.5686 7.79932 46.4317 8.37372C46.2949 8.94812 46.6505 9.52395 47.2249 9.66078L47.2256 9.66006ZM46.1146 28.8184L47.262 32.7452L51.1745 33.8854L57.3176 22.6824L46.1146 28.8184ZM9.68073 32.6874C12.3974 21.3833 21.4624 12.3446 32.7744 9.66006C33.3488 9.52395 33.7044 8.94741 33.5676 8.37301C33.4314 7.7986 32.8542 7.44227 32.2805 7.57982C20.1917 10.4483 10.5038 20.1076 7.6012 32.1871C7.46365 32.7615 7.81713 33.3388 8.39082 33.4763C8.47491 33.4963 8.55901 33.5063 8.64168 33.5063C9.12414 33.5063 9.56243 33.177 9.68002 32.6867L9.68073 32.6874ZM22.6824 22.6824L28.8255 33.8854L32.7452 32.738L33.8854 28.8255L22.6824 22.6824ZM32.7744 70.3399C21.3897 67.6383 12.309 58.5319 9.64011 47.1387C9.50542 46.5636 8.93102 46.2065 8.35519 46.3419C7.78007 46.4766 7.42375 47.0517 7.55844 47.6269C10.4098 59.8012 20.1147 69.5339 32.2805 72.4209C32.3632 72.4408 32.4465 72.4501 32.5285 72.4501C33.0124 72.4501 33.4507 72.1194 33.5676 71.6277C33.7037 71.0533 33.3488 70.4768 32.7744 70.3399ZM33.8854 51.1745L32.7452 47.262L28.8184 46.1146L22.6824 57.3176L33.8854 51.1745ZM46.0975 45.3706L64.4897 40L46.0975 34.6301C45.7469 34.5275 45.4732 34.2538 45.3706 33.9032L40 15.5103L34.6294 33.9032C34.5268 34.2538 34.2531 34.5275 33.9025 34.6301L15.5096 40.0007L33.9032 45.3713C34.2538 45.4739 34.5275 45.7476 34.6301 46.0982L40.0007 64.4904L45.3713 46.0975C45.4739 45.7469 45.7469 45.4732 46.0975 45.3706ZM46.1146 51.1745L57.3176 57.3176L51.1816 46.1146L47.262 47.262L46.1146 51.1745ZM72.4416 47.6261C72.5763 47.051 72.2192 46.4759 71.6448 46.3412C71.0676 46.2058 70.4946 46.5636 70.3599 47.138C67.691 58.5312 58.6103 67.6383 47.2256 70.3392C46.6512 70.4753 46.2956 71.0519 46.4324 71.6263C46.5493 72.118 46.9876 72.4487 47.4715 72.4487C47.5534 72.4487 47.6361 72.4394 47.7195 72.4195C59.886 69.5325 69.5902 59.8012 72.4416 47.6261Z" fill="#216A83"/>
</svg>
